<svg width="393" height="149" viewBox="0 0 393 149" fill="none" xmlns="http://www.w3.org/2000/svg">
<path fill-rule="evenodd" clip-rule="evenodd" d="M47.3013 39.4846C62.738 39.4846 76.2275 31.0768 83.521 18.5537C74.8821 8.08822 61.8175 1.4187 47.2305 1.4187C32.6787 1.4187 19.6495 8.05274 11.0106 18.4827C18.3041 31.0413 31.829 39.4846 47.3013 39.4846ZM38.8751 96.034C16.7822 92.0607 0 72.5488 0 49.099C0 43.4229 0.955946 37.9595 2.76162 32.922C25.7043 33.2413 44.2214 52.1145 44.2214 75.3514C44.2214 82.8724 42.2741 89.9321 38.8751 96.034ZM55.3038 96.1046C77.5384 92.2377 94.4976 72.6549 94.4976 49.0987C94.4976 43.5644 93.5416 38.243 91.8422 33.3118C68.7933 33.4891 50.1346 52.4335 50.1346 75.7413C50.1346 83.1204 52.0111 90.0382 55.3038 96.1046Z" fill="url(#paint0_linear_3001_1291)"/>
<path fill-rule="evenodd" clip-rule="evenodd" d="M47.2655 11.3877C52.2223 11.3877 56.2585 15.432 56.2585 20.4341C56.2585 23.9463 54.3112 26.9972 51.408 28.5227C56.3293 29.5515 60.578 32.3541 63.5874 36.1857C58.5599 38.3143 53.072 39.485 47.3009 39.485C41.3882 39.485 35.7588 38.2788 30.6604 36.0438C33.6699 32.1767 38.0247 29.4096 42.9815 28.4517C40.1845 26.8908 38.2726 23.9108 38.2726 20.4341C38.2726 15.432 42.3088 11.3877 47.2655 11.3877ZM22.4463 54.4559C24.1812 54.4559 25.7745 54.9526 27.1199 55.804C26.4472 53.7109 26.0931 51.5114 26.0931 49.2055C26.0931 46.4738 26.5888 43.884 27.5093 41.5071C36.3607 48.2476 42.4858 58.4647 43.902 70.1009C38.9807 69.3559 34.5904 66.8726 31.4393 63.2895V63.5378C31.4393 68.54 27.4031 72.6197 22.4463 72.6197C17.4896 72.6197 13.4534 68.54 13.4534 63.5378C13.4534 58.5357 17.4896 54.4559 22.4463 54.4559ZM71.9431 54.7043C76.8999 54.7043 80.9361 58.7485 80.9361 63.7507C80.9361 68.7883 76.8999 72.8326 71.9431 72.8326C66.9863 72.8326 62.9501 68.7883 62.9501 63.7507C62.9501 63.4669 62.9855 63.1831 62.9855 62.9347C59.8699 66.6243 55.4796 69.214 50.5228 70.0654C52.0453 58.6066 58.0642 48.6378 66.7385 41.9683C67.5528 44.2388 68.0131 46.6512 68.0131 49.2055C68.0131 51.6888 67.5528 54.1012 66.7739 56.3362C68.2255 55.3074 70.0312 54.7043 71.9431 54.7043Z" fill="white"/>
<path fill-rule="evenodd" clip-rule="evenodd" d="M125.76 87.5198V9.93333C125.76 7.5919 126.61 5.56976 128.238 3.90238C129.902 2.235 131.921 1.41905 134.257 1.41905H183.258C184.675 1.41905 185.878 1.91571 186.87 2.98C187.861 4.00881 188.357 5.28595 188.357 6.81143C188.357 8.23048 187.861 9.43667 186.87 10.43C185.878 11.3879 184.675 11.8845 183.258 11.8845H137.515V42.394H182.302C183.719 42.394 184.922 42.9262 185.914 43.955C186.905 45.0193 187.401 46.2964 187.401 47.8219C187.401 49.2764 186.905 50.4826 185.914 51.4405C184.922 52.3983 183.719 52.895 182.302 52.895H137.515V85.5331H183.258C184.675 85.5331 185.878 86.0298 186.87 87.0231C187.861 88.0164 188.357 89.2226 188.357 90.6417C188.357 92.1671 187.861 93.4443 186.87 94.4731C185.878 95.5019 184.675 96.034 183.258 96.034H134.257C131.921 96.034 129.902 95.2181 128.238 93.5507C126.61 91.8833 125.76 89.8612 125.76 87.5198ZM206.307 91.0674V10.2171C206.307 7.5919 207.299 5.39238 209.211 3.51214C211.122 1.6319 213.388 0.709524 216.079 0.709524C217.991 0.709524 219.832 1.24167 221.602 2.34143C223.337 3.40571 224.612 4.86024 225.391 6.66952L252.441 72.6198L279.667 6.66952C280.482 4.86024 281.721 3.40571 283.456 2.34143C285.191 1.24167 287.032 0.709524 289.014 0.709524C291.705 0.709524 293.971 1.6319 295.883 3.51214C297.795 5.39238 298.786 7.5919 298.786 10.2171V91.0674C298.786 92.6638 298.22 94.0474 297.087 95.1826C295.954 96.3178 294.538 96.8855 292.838 96.8855C291.209 96.8855 289.864 96.3178 288.731 95.1826C287.598 94.0474 287.032 92.6638 287.032 91.0674V18.1638L255.273 95.0762C254.813 96.2824 253.821 96.8855 252.299 96.8855C250.954 96.8855 250.068 96.2824 249.608 95.0762L218.062 18.1638V91.0674C218.062 92.6638 217.495 94.0474 216.362 95.1826C215.229 96.3178 213.813 96.8855 212.114 96.8855C210.521 96.8855 209.14 96.3178 208.007 95.1826C206.874 94.0474 206.307 92.6638 206.307 91.0674ZM316.418 81.7017C316.418 80.1762 316.949 78.7926 317.976 77.5509C319.038 76.3448 320.348 75.7417 321.941 75.7417C323.287 75.7417 324.42 76.1319 325.34 76.9124C333.023 83.7948 341.875 87.2359 351.788 87.2359C355.824 87.2359 359.329 86.7393 362.339 85.7459C365.384 84.7526 367.685 83.44 369.314 81.7371C370.978 80.1052 372.146 78.3669 372.925 76.5576C373.669 74.7483 374.058 72.8681 374.058 70.9524C374.058 68.3271 373.421 66.0921 372.182 64.1055C370.907 62.1543 369.172 60.5579 367.012 59.3517C364.853 58.11 362.374 57.0812 359.542 56.2298C356.709 55.3783 353.771 54.4914 350.691 53.569C347.61 52.6467 344.53 51.7243 341.45 50.8019C338.334 49.8795 335.395 48.7443 332.598 47.3607C329.837 46.0126 327.358 44.4517 325.163 42.6779C323.004 40.904 321.304 38.5981 320.029 35.7955C318.755 33.0283 318.118 29.8 318.118 26.2169C318.118 18.4831 321.198 12.1683 327.323 7.30809C333.448 2.41238 341.202 0 350.549 0C362.693 0 372.783 3.33476 380.821 10.0043C382.166 11.175 382.839 12.594 382.839 14.1905C382.839 15.645 382.272 16.9576 381.21 18.1283C380.148 19.2636 378.802 19.8312 377.315 19.8312C376.005 19.8312 374.872 19.441 373.916 18.625C367.225 13.1971 359.152 10.4655 349.735 10.4655C343.999 10.4655 339.325 11.8845 335.714 14.6871C332.103 17.4898 330.297 21.1083 330.297 25.5783C330.297 27.8488 330.934 29.8355 332.174 31.5383C333.448 33.2412 335.148 34.6602 337.343 35.76C339.502 36.8598 341.981 37.7821 344.778 38.6336C347.61 39.4495 350.584 40.3364 353.665 41.2233C356.745 42.1457 359.861 43.0326 362.941 43.955C366.021 44.8774 368.924 46.0481 371.757 47.5026C374.518 48.9571 376.997 50.6245 379.156 52.5402C381.352 54.456 383.051 56.8683 384.326 59.8483C385.6 62.7929 386.238 66.1276 386.238 69.9236C386.238 72.7971 385.848 75.4933 385.105 78.1186C384.326 80.7438 383.051 83.2271 381.281 85.6395C379.511 88.0874 377.315 90.1805 374.695 91.9188C372.075 93.6571 368.783 95.0762 364.782 96.1405C360.781 97.2048 356.32 97.7369 351.399 97.7369C338.299 97.7369 327.288 93.799 318.295 85.9943C317.055 84.859 316.418 83.44 316.418 81.7017Z" fill="url(#paint1_linear_3001_1291)"/>
<path fill-rule="evenodd" clip-rule="evenodd" d="M0.956055 123.953V139.528C0.956055 139.989 1.09768 140.414 1.45173 140.734C1.77038 141.088 2.19524 141.23 2.65551 141.23H12.4982C12.7815 141.23 12.9939 141.124 13.2063 140.911C13.4188 140.698 13.4896 140.45 13.4896 140.166C13.4896 139.882 13.4188 139.634 13.2063 139.421C12.9939 139.244 12.7815 139.137 12.4982 139.137H3.29281V132.574H12.2858C12.569 132.574 12.8169 132.503 12.9939 132.29C13.2063 132.113 13.3125 131.865 13.3125 131.581C13.3125 131.262 13.2063 131.013 12.9939 130.8C12.8169 130.588 12.569 130.481 12.2858 130.481H3.29281V124.379H12.4982C12.7815 124.379 12.9939 124.273 13.2063 124.06C13.4188 123.882 13.4896 123.634 13.4896 123.35C13.4896 123.031 13.4188 122.783 13.2063 122.57C12.9939 122.357 12.7815 122.251 12.4982 122.251H2.65551C2.19524 122.251 1.77038 122.428 1.45173 122.747C1.09768 123.102 0.956055 123.492 0.956055 123.953ZM17.0301 128.353V140.379C17.0301 140.663 17.1363 140.911 17.3134 141.124C17.5258 141.301 17.7736 141.408 18.0569 141.408C18.3755 141.408 18.6234 141.301 18.8358 141.124C19.0482 140.911 19.1544 140.663 19.1544 140.379V131.191C19.5439 130.623 20.075 130.126 20.7477 129.701C21.4204 129.275 22.0931 129.062 22.7658 129.062C24.4298 129.062 25.2796 130.02 25.2796 131.9V140.379C25.2796 140.663 25.3858 140.911 25.5982 141.124C25.8106 141.301 26.0585 141.408 26.3417 141.408C26.625 141.408 26.8728 141.301 27.0852 141.124C27.2977 140.911 27.4039 140.663 27.4039 140.379V131.155C27.7934 130.588 28.3244 130.091 28.9971 129.701C29.6698 129.275 30.3779 129.062 31.0506 129.062C31.9004 129.062 32.5377 129.31 32.9625 129.807C33.3874 130.304 33.5644 131.013 33.5644 131.9V140.379C33.5644 140.663 33.6706 140.911 33.8831 141.124C34.0955 141.301 34.3433 141.408 34.6266 141.408C34.9098 141.408 35.1577 141.301 35.3701 141.124C35.5825 140.911 35.7241 140.663 35.7241 140.379V131.297C35.7241 129.913 35.3701 128.885 34.7328 128.211C34.0955 127.501 33.1396 127.146 31.865 127.146C30.9444 127.146 30.0593 127.43 29.1742 127.927C28.3244 128.459 27.6871 129.062 27.2623 129.736C27.0498 128.956 26.625 128.353 26.0231 127.856C25.3858 127.395 24.5715 127.146 23.5801 127.146C22.6596 127.146 21.7744 127.395 20.9247 127.927C20.075 128.423 19.5085 128.956 19.1544 129.488V128.353C19.1544 128.069 19.0482 127.856 18.8358 127.643C18.6234 127.43 18.3755 127.324 18.1277 127.324C17.809 127.324 17.5612 127.43 17.3488 127.643C17.1363 127.82 17.0301 128.069 17.0301 128.353ZM39.9727 128.353V145.629C39.9727 145.878 40.0435 146.126 40.256 146.339C40.4684 146.552 40.7163 146.658 40.9995 146.658C41.2827 146.658 41.566 146.552 41.7784 146.339C41.9908 146.126 42.0971 145.878 42.0971 145.629V139.173C42.6281 139.918 43.3008 140.521 44.1152 140.947C44.9295 141.372 45.7792 141.585 46.6998 141.585C48.5408 141.585 49.9925 140.911 51.1254 139.598C52.223 138.286 52.7895 136.548 52.7895 134.348C52.7895 132.148 52.223 130.375 51.1254 129.098C49.9925 127.785 48.5408 127.146 46.6998 127.146C45.7792 127.146 44.8941 127.359 44.0798 127.82C43.2654 128.246 42.5927 128.814 42.0971 129.559V128.353C42.0971 128.069 41.9908 127.856 41.7784 127.643C41.566 127.43 41.3181 127.324 41.0703 127.324C40.7517 127.324 40.5038 127.43 40.2914 127.643C40.079 127.82 39.9727 128.069 39.9727 128.353ZM43.7965 139.031C43.053 138.605 42.4511 138.073 42.0971 137.47V131.262C42.4511 130.658 43.053 130.126 43.7965 129.701C44.5754 129.275 45.3544 129.062 46.1687 129.062C47.5141 129.062 48.6117 129.559 49.3906 130.552C50.1695 131.51 50.5944 132.787 50.5944 134.348C50.5944 135.909 50.1695 137.186 49.3906 138.179C48.6117 139.173 47.5141 139.669 46.1687 139.669C45.3544 139.669 44.5754 139.457 43.7965 139.031ZM56.1884 123.102V140.379C56.1884 140.663 56.2946 140.911 56.5071 141.088C56.7195 141.301 56.9673 141.408 57.2506 141.408C57.5338 141.408 57.7817 141.301 57.9941 141.088C58.2065 140.911 58.3127 140.663 58.3127 140.379V123.102C58.3127 122.818 58.2419 122.605 58.0295 122.393C57.8171 122.18 57.5692 122.073 57.286 122.073C57.0027 122.073 56.7195 122.18 56.5071 122.393C56.2946 122.57 56.1884 122.818 56.1884 123.102ZM61.7825 134.348C61.7825 135.696 62.0657 136.902 62.5968 138.002C63.1633 139.066 63.9422 139.953 64.969 140.592C66.0311 141.266 67.2349 141.585 68.5803 141.585C69.9257 141.585 71.1295 141.266 72.1562 140.592C73.2184 139.953 73.9973 139.066 74.5284 138.002C75.0595 136.902 75.3427 135.696 75.3427 134.348C75.3427 133.035 75.0595 131.794 74.5284 130.729C73.9973 129.63 73.2184 128.778 72.1562 128.14C71.1295 127.466 69.9257 127.146 68.5803 127.146C67.2349 127.146 66.0311 127.466 64.969 128.14C63.9422 128.778 63.1633 129.63 62.5968 130.729C62.0657 131.794 61.7825 133.035 61.7825 134.348ZM65.2522 138.108C64.4025 137.08 64.013 135.838 64.013 134.348C64.013 133.426 64.19 132.539 64.5087 131.758C64.8627 130.942 65.3938 130.304 66.1019 129.807C66.81 129.31 67.6244 129.062 68.5803 129.062C69.5363 129.062 70.3506 129.31 71.0587 129.807C71.7314 130.304 72.2625 130.942 72.6165 131.723C72.9352 132.539 73.1122 133.39 73.1122 134.348C73.1122 135.306 72.9352 136.193 72.6165 136.973C72.2625 137.789 71.7314 138.428 71.0587 138.924C70.3506 139.421 69.5363 139.669 68.5803 139.669C67.1641 139.669 66.0665 139.173 65.2522 138.108ZM77.5025 127.643C77.29 127.856 77.1838 128.104 77.1838 128.353C77.1838 128.494 77.2192 128.636 77.29 128.743L82.53 141.372L81.6095 143.465C81.3617 143.998 81.0784 144.388 80.7244 144.601C80.4411 144.813 80.0871 144.92 79.6976 144.92H79.5914C79.5206 144.92 79.4144 144.92 79.2373 144.884H78.8833C78.6354 144.884 78.423 144.991 78.2106 145.168C78.0336 145.346 77.9273 145.594 77.9273 145.842C77.9273 146.055 77.9981 146.232 78.069 146.374C78.1752 146.516 78.3168 146.623 78.5292 146.694C78.5942 146.707 78.6591 146.724 78.7223 146.742C78.8313 146.772 78.9352 146.8 79.0249 146.8H79.6268C81.5387 146.8 82.8841 145.878 83.663 144.033L90.0006 128.743C90.0714 128.636 90.1068 128.494 90.1068 128.353C90.1068 128.069 90.0006 127.82 89.7881 127.643C89.5757 127.43 89.2925 127.324 89.0092 127.324C88.7614 127.324 88.549 127.395 88.3719 127.501C88.1949 127.608 88.0887 127.785 87.9825 127.962L83.663 138.747L79.2727 127.962C79.0957 127.537 78.7771 127.324 78.2814 127.324C77.9981 127.324 77.7149 127.43 77.5025 127.643ZM92.7976 130.729C92.2311 131.829 91.9479 133.035 91.9479 134.348C91.9479 136.477 92.5852 138.215 93.8952 139.563C95.2052 140.911 96.8692 141.585 98.9227 141.585C99.3476 141.585 99.8787 141.514 100.445 141.408C101.012 141.301 101.578 141.159 102.145 140.982C102.711 140.805 103.171 140.556 103.561 140.237C103.95 139.953 104.127 139.598 104.127 139.279C104.127 139.031 104.057 138.818 103.879 138.641C103.702 138.463 103.49 138.392 103.278 138.392C103.136 138.392 102.959 138.428 102.817 138.534C101.72 139.386 100.481 139.811 99.0998 139.811C97.6835 139.811 96.5152 139.35 95.63 138.463C94.7095 137.541 94.2492 136.406 94.143 135.058H104.092C104.411 135.058 104.694 134.951 104.906 134.703C105.154 134.49 105.26 134.206 105.26 133.887C105.26 133.674 105.189 133.213 105.048 132.468C104.694 130.836 103.95 129.559 102.853 128.601C101.72 127.643 100.339 127.146 98.6749 127.146C97.4003 127.146 96.2319 127.466 95.2052 128.104C94.1784 128.743 93.3641 129.63 92.7976 130.729ZM103.171 133.497H94.143C94.1784 132.964 94.2846 132.432 94.4971 131.9C94.7095 131.368 94.9927 130.871 95.3468 130.41C95.7009 129.984 96.1611 129.594 96.7276 129.346C97.2941 129.062 97.9668 128.92 98.6749 128.92C99.4184 128.92 100.091 129.062 100.658 129.346C101.259 129.63 101.755 129.984 102.109 130.446C102.428 130.907 102.711 131.403 102.888 131.9C103.065 132.432 103.171 132.964 103.171 133.497ZM108.801 130.729C108.199 131.829 107.916 133.035 107.916 134.348C107.916 136.477 108.588 138.215 109.863 139.563C111.173 140.911 112.872 141.585 114.891 141.585C115.351 141.585 115.847 141.514 116.448 141.408C117.015 141.301 117.581 141.159 118.148 140.982C118.714 140.805 119.175 140.556 119.564 140.237C119.954 139.953 120.131 139.598 120.131 139.279C120.131 139.031 120.06 138.818 119.847 138.641C119.67 138.463 119.493 138.392 119.281 138.392C119.104 138.392 118.962 138.428 118.821 138.534C117.688 139.386 116.448 139.811 115.103 139.811C113.651 139.811 112.483 139.35 111.598 138.463C110.713 137.541 110.217 136.406 110.146 135.058H120.06C120.414 135.058 120.662 134.951 120.91 134.703C121.122 134.49 121.228 134.206 121.228 133.887C121.228 133.674 121.157 133.213 121.016 132.468C120.662 130.836 119.954 129.559 118.821 128.601C117.723 127.643 116.342 127.146 114.678 127.146C113.404 127.146 112.235 127.466 111.208 128.104C110.182 128.743 109.367 129.63 108.801 130.729ZM119.175 133.497H110.146C110.182 132.964 110.288 132.432 110.5 131.9C110.677 131.368 110.961 130.871 111.315 130.41C111.669 129.984 112.164 129.594 112.731 129.346C113.297 129.062 113.935 128.92 114.643 128.92C115.386 128.92 116.059 129.062 116.661 129.346C117.263 129.63 117.723 129.984 118.077 130.446C118.431 130.907 118.714 131.403 118.891 131.9C119.068 132.432 119.175 132.964 119.175 133.497ZM132.098 124.024V140.237C132.098 140.556 132.239 140.84 132.452 141.053C132.664 141.301 132.947 141.408 133.266 141.408C133.62 141.408 133.903 141.301 134.116 141.053C134.364 140.84 134.47 140.556 134.47 140.237V125.621L140.807 141.053C140.878 141.301 141.055 141.408 141.338 141.408C141.622 141.408 141.834 141.301 141.94 141.053L148.313 125.621V140.237C148.313 140.556 148.419 140.84 148.632 141.053C148.88 141.301 149.128 141.408 149.446 141.408C149.8 141.408 150.084 141.301 150.331 141.053C150.544 140.84 150.65 140.556 150.65 140.237V124.024C150.65 123.492 150.473 123.067 150.084 122.676C149.694 122.322 149.234 122.109 148.703 122.109C148.313 122.109 147.924 122.215 147.57 122.428C147.251 122.676 147.003 122.96 146.826 123.315L141.374 136.548L135.957 123.315C135.78 122.96 135.532 122.676 135.178 122.428C134.824 122.215 134.47 122.109 134.08 122.109C133.549 122.109 133.089 122.322 132.699 122.676C132.31 123.067 132.098 123.492 132.098 124.024ZM154.651 135.022C154.368 135.59 154.226 136.264 154.226 137.009C154.226 137.967 154.474 138.783 154.969 139.528C155.43 140.237 156.032 140.734 156.775 141.088C157.483 141.408 158.227 141.585 159.041 141.585C160.882 141.585 162.405 140.947 163.573 139.634V140.273C163.573 140.592 163.679 140.84 163.856 141.088C164.069 141.301 164.317 141.408 164.635 141.408C164.918 141.408 165.166 141.301 165.379 141.124C165.591 140.911 165.697 140.663 165.697 140.379V131.794C165.697 130.978 165.556 130.268 165.272 129.665C164.989 129.062 164.635 128.565 164.14 128.211C163.644 127.856 163.077 127.607 162.475 127.43C161.838 127.253 161.165 127.146 160.422 127.146C158.404 127.146 156.704 127.785 155.288 129.062C155.111 129.204 155.005 129.417 155.005 129.701C155.005 129.949 155.111 130.162 155.288 130.304C155.501 130.446 155.713 130.552 155.961 130.552C156.173 130.552 156.386 130.481 156.563 130.304C157.625 129.452 158.793 128.991 160.103 128.991C161.13 128.991 161.944 129.275 162.617 129.772C163.254 130.304 163.573 131.013 163.573 131.9V134.383C162.475 133.106 160.988 132.468 159.041 132.468C158.439 132.468 157.837 132.574 157.306 132.752C156.74 132.964 156.209 133.213 155.748 133.567C155.288 133.922 154.934 134.419 154.651 135.022ZM157.377 139.173C156.775 138.605 156.457 137.896 156.457 137.044C156.457 136.157 156.775 135.448 157.377 134.88C158.014 134.313 158.829 134.029 159.82 134.029C160.599 134.029 161.307 134.171 161.98 134.49C162.652 134.774 163.184 135.199 163.573 135.732V138.321C163.184 138.853 162.652 139.279 161.98 139.563C161.307 139.882 160.599 140.024 159.82 140.024C158.829 140.024 158.014 139.74 157.377 139.173ZM169.946 128.353V140.379C169.946 140.663 170.052 140.911 170.265 141.124C170.477 141.301 170.725 141.408 171.008 141.408C171.291 141.408 171.539 141.301 171.752 141.124C171.964 140.911 172.07 140.663 172.07 140.379V131.191C172.495 130.588 173.097 130.091 173.841 129.701C174.584 129.275 175.363 129.062 176.142 129.062C177.133 129.062 177.912 129.31 178.408 129.807C178.939 130.304 179.222 131.12 179.222 132.255V140.379C179.222 140.663 179.328 140.911 179.541 141.124C179.718 141.301 179.966 141.408 180.249 141.408C180.568 141.408 180.815 141.301 181.028 141.124C181.24 140.911 181.347 140.663 181.347 140.379V131.581C181.347 128.636 179.895 127.146 176.956 127.146C176 127.146 175.08 127.395 174.23 127.856C173.345 128.317 172.601 128.849 172.07 129.488V128.353C172.07 128.069 171.964 127.856 171.787 127.643C171.575 127.43 171.327 127.324 171.044 127.324C170.76 127.324 170.477 127.43 170.265 127.643C170.052 127.82 169.946 128.069 169.946 128.353ZM185.241 135.022C184.958 135.59 184.816 136.264 184.816 137.009C184.816 137.967 185.064 138.783 185.56 139.528C186.055 140.237 186.657 140.734 187.365 141.088C188.074 141.408 188.852 141.585 189.631 141.585C191.508 141.585 193.03 140.947 194.163 139.634V140.273C194.163 140.592 194.27 140.84 194.482 141.088C194.694 141.301 194.942 141.408 195.225 141.408C195.509 141.408 195.792 141.301 196.004 141.124C196.217 140.911 196.323 140.663 196.323 140.379V131.794C196.323 130.978 196.181 130.268 195.898 129.665C195.615 129.062 195.225 128.565 194.73 128.211C194.234 127.856 193.703 127.607 193.066 127.43C192.428 127.253 191.756 127.146 191.012 127.146C188.994 127.146 187.295 127.785 185.878 129.062C185.701 129.204 185.631 129.417 185.631 129.701C185.631 129.949 185.701 130.162 185.914 130.304C186.091 130.446 186.303 130.552 186.551 130.552C186.799 130.552 186.976 130.481 187.153 130.304C188.215 129.452 189.419 128.991 190.729 128.991C191.72 128.991 192.57 129.275 193.207 129.772C193.845 130.304 194.163 131.013 194.163 131.9V134.383C193.101 133.106 191.579 132.468 189.631 132.468C189.03 132.468 188.463 132.574 187.897 132.752C187.33 132.964 186.834 133.213 186.374 133.567C185.914 133.922 185.524 134.419 185.241 135.022ZM188.003 139.173C187.365 138.605 187.047 137.896 187.047 137.044C187.047 136.157 187.365 135.448 188.003 134.88C188.64 134.313 189.419 134.029 190.41 134.029C191.189 134.029 191.897 134.171 192.57 134.49C193.243 134.774 193.774 135.199 194.163 135.732V138.321C193.774 138.853 193.243 139.279 192.57 139.563C191.897 139.882 191.189 140.024 190.41 140.024C189.419 140.024 188.64 139.74 188.003 139.173ZM201.457 129.098C200.324 130.375 199.757 132.113 199.757 134.277C199.757 136.477 200.324 138.215 201.457 139.492C202.59 140.769 204.041 141.408 205.882 141.408C206.803 141.408 207.688 141.195 208.467 140.734C209.281 140.272 209.954 139.669 210.485 138.924V140.911C210.485 141.621 210.344 142.259 210.131 142.827C209.883 143.359 209.529 143.785 209.104 144.104C208.715 144.423 208.219 144.672 207.724 144.813C207.228 144.991 206.661 145.062 206.06 145.062C205.245 145.062 204.502 144.955 203.864 144.743C203.262 144.565 202.661 144.246 202.13 143.749C201.988 143.643 201.775 143.572 201.563 143.572C201.28 143.572 201.067 143.678 200.89 143.856C200.713 144.033 200.607 144.246 200.607 144.459C200.607 144.778 200.713 145.026 200.926 145.204C201.634 145.807 202.413 146.233 203.227 146.445C204.041 146.694 204.997 146.8 206.06 146.8C206.768 146.8 207.44 146.765 208.042 146.623C208.679 146.516 209.246 146.303 209.812 146.02C210.379 145.736 210.875 145.346 211.264 144.92C211.689 144.459 212.008 143.891 212.255 143.217C212.468 142.508 212.609 141.727 212.609 140.84V128.353C212.609 128.069 212.503 127.856 212.291 127.643C212.078 127.43 211.831 127.324 211.583 127.324C211.264 127.324 211.016 127.43 210.804 127.643C210.591 127.82 210.485 128.069 210.485 128.353V129.559C209.919 128.814 209.246 128.211 208.432 127.785C207.653 127.359 206.803 127.146 205.882 127.146C204.041 127.146 202.59 127.785 201.457 129.098ZM203.156 138.038C202.377 137.08 201.988 135.803 201.988 134.277C201.988 132.752 202.377 131.474 203.156 130.517C203.935 129.559 205.033 129.062 206.378 129.062C207.192 129.062 208.007 129.275 208.75 129.701C209.529 130.126 210.096 130.658 210.485 131.262V137.257C210.096 137.86 209.494 138.392 208.75 138.853C208.007 139.279 207.192 139.492 206.378 139.492C205.033 139.492 203.971 139.031 203.156 138.038ZM216.929 130.729C216.362 131.829 216.044 133.035 216.044 134.348C216.044 136.477 216.717 138.215 218.027 139.563C219.337 140.911 221.001 141.585 223.019 141.585C223.479 141.585 223.975 141.514 224.577 141.408C225.143 141.301 225.71 141.159 226.276 140.982C226.842 140.805 227.303 140.556 227.692 140.237C228.082 139.953 228.259 139.598 228.259 139.279C228.259 139.031 228.188 138.818 228.011 138.641C227.798 138.463 227.621 138.392 227.409 138.392C227.267 138.392 227.09 138.428 226.949 138.534C225.851 139.386 224.612 139.811 223.231 139.811C221.815 139.811 220.647 139.35 219.726 138.463C218.841 137.541 218.345 136.406 218.274 135.058H228.223C228.542 135.058 228.825 134.951 229.038 134.703C229.25 134.49 229.392 134.206 229.392 133.887C229.392 133.674 229.321 133.213 229.179 132.468C228.825 130.836 228.082 129.559 226.984 128.601C225.851 127.643 224.47 127.146 222.806 127.146C221.532 127.146 220.363 127.466 219.337 128.104C218.31 128.743 217.495 129.63 216.929 130.729ZM227.303 133.497H218.274C218.31 132.964 218.416 132.432 218.628 131.9C218.841 131.368 219.124 130.871 219.478 130.41C219.832 129.984 220.292 129.594 220.859 129.346C221.425 129.062 222.063 128.92 222.771 128.92C223.55 128.92 224.187 129.062 224.789 129.346C225.391 129.63 225.851 129.984 226.205 130.446C226.559 130.907 226.842 131.403 227.02 131.9C227.197 132.432 227.303 132.964 227.303 133.497ZM232.826 128.353V140.379C232.826 140.663 232.932 140.911 233.145 141.124C233.357 141.301 233.605 141.408 233.888 141.408C234.171 141.408 234.419 141.301 234.667 141.124C234.88 140.911 234.986 140.663 234.986 140.379V131.191C235.375 130.623 235.906 130.126 236.579 129.701C237.252 129.275 237.924 129.062 238.562 129.062C240.261 129.062 241.111 130.02 241.111 131.9V140.379C241.111 140.663 241.217 140.911 241.43 141.124C241.607 141.301 241.854 141.408 242.138 141.408C242.456 141.408 242.704 141.301 242.917 141.124C243.129 140.911 243.235 140.663 243.235 140.379V131.155C243.589 130.588 244.12 130.091 244.828 129.701C245.501 129.275 246.174 129.062 246.882 129.062C247.696 129.062 248.334 129.31 248.758 129.807C249.183 130.304 249.396 131.013 249.396 131.9V140.379C249.396 140.663 249.502 140.911 249.714 141.124C249.891 141.301 250.139 141.408 250.458 141.408C250.741 141.408 250.989 141.301 251.201 141.124C251.414 140.911 251.52 140.663 251.52 140.379V131.297C251.52 129.913 251.201 128.885 250.564 128.211C249.891 127.501 248.971 127.146 247.696 127.146C246.776 127.146 245.855 127.43 245.005 127.927C244.156 128.459 243.518 129.062 243.094 129.736C242.881 128.956 242.456 128.353 241.854 127.856C241.217 127.395 240.403 127.146 239.411 127.146C238.491 127.146 237.606 127.395 236.756 127.927C235.906 128.423 235.304 128.956 234.986 129.488V128.353C234.986 128.069 234.88 127.856 234.667 127.643C234.455 127.43 234.207 127.324 233.924 127.324C233.64 127.324 233.392 127.43 233.18 127.643C232.968 127.82 232.826 128.069 232.826 128.353ZM255.84 130.729C255.273 131.829 254.99 133.035 254.99 134.348C254.99 136.477 255.627 138.215 256.937 139.563C258.247 140.911 259.911 141.585 261.965 141.585C262.389 141.585 262.921 141.514 263.487 141.408C264.089 141.301 264.655 141.159 265.187 140.982C265.753 140.805 266.249 140.556 266.638 140.237C266.992 139.953 267.205 139.598 267.205 139.279C267.205 139.031 267.098 138.818 266.921 138.641C266.744 138.463 266.532 138.392 266.355 138.392C266.178 138.392 266.036 138.428 265.859 138.534C264.762 139.386 263.522 139.811 262.142 139.811C260.725 139.811 259.557 139.35 258.672 138.463C257.787 137.541 257.291 136.406 257.185 135.058H267.134C267.452 135.058 267.736 134.951 267.948 134.703C268.196 134.49 268.302 134.206 268.302 133.887C268.302 133.674 268.231 133.213 268.09 132.468C267.736 130.836 266.992 129.559 265.895 128.601C264.797 127.643 263.416 127.146 261.717 127.146C260.442 127.146 259.309 127.466 258.282 128.104C257.22 128.743 256.406 129.63 255.84 130.729ZM266.213 133.497H257.185C257.22 132.964 257.327 132.432 257.539 131.9C257.751 131.368 258.035 130.871 258.389 130.41C258.743 129.984 259.203 129.594 259.805 129.346C260.371 129.062 261.009 128.92 261.717 128.92C262.46 128.92 263.133 129.062 263.735 129.346C264.301 129.63 264.797 129.984 265.151 130.446C265.505 130.907 265.753 131.403 265.93 131.9C266.142 132.432 266.213 132.964 266.213 133.497ZM271.772 128.353V140.379C271.772 140.663 271.878 140.911 272.091 141.124C272.268 141.301 272.515 141.408 272.799 141.408C273.117 141.408 273.365 141.301 273.578 141.124C273.79 140.911 273.896 140.663 273.896 140.379V131.191C274.321 130.588 274.923 130.091 275.667 129.701C276.41 129.275 277.154 129.062 277.968 129.062C278.959 129.062 279.703 129.31 280.234 129.807C280.765 130.304 281.013 131.12 281.013 132.255V140.379C281.013 140.663 281.119 140.911 281.331 141.124C281.544 141.301 281.792 141.408 282.075 141.408C282.358 141.408 282.641 141.301 282.854 141.124C283.066 140.911 283.172 140.663 283.172 140.379V131.581C283.172 128.636 281.685 127.146 278.782 127.146C277.826 127.146 276.906 127.395 276.021 127.856C275.135 128.317 274.427 128.849 273.896 129.488V128.353C273.896 128.069 273.79 127.856 273.578 127.643C273.365 127.43 273.153 127.324 272.869 127.324C272.551 127.324 272.303 127.43 272.091 127.643C271.878 127.82 271.772 128.069 271.772 128.353ZM285.651 127.749C285.474 127.927 285.403 128.14 285.403 128.423C285.403 128.707 285.474 128.92 285.651 129.133C285.828 129.31 286.04 129.417 286.324 129.417H287.846V138.357C287.846 139.386 288.094 140.166 288.589 140.734C289.121 141.301 289.864 141.585 290.855 141.585C291.21 141.585 291.493 141.55 291.776 141.514C292.059 141.479 292.342 141.408 292.59 141.337C292.838 141.23 293.051 141.088 293.192 140.947C293.334 140.769 293.405 140.592 293.405 140.379C293.405 140.131 293.298 139.918 293.121 139.74C292.944 139.563 292.732 139.492 292.484 139.492C292.411 139.492 292.305 139.509 292.166 139.531C292.102 139.541 292.031 139.552 291.953 139.563C291.67 139.634 291.493 139.669 291.351 139.669C290.891 139.669 290.537 139.527 290.324 139.208C290.077 138.889 289.97 138.463 289.97 137.931V129.417H292.024C292.272 129.417 292.484 129.31 292.661 129.133C292.838 128.956 292.909 128.743 292.909 128.459C292.909 128.175 292.838 127.962 292.661 127.785C292.484 127.572 292.272 127.501 292.024 127.501H289.97V124.628C289.97 124.344 289.864 124.095 289.652 123.918C289.439 123.705 289.227 123.599 288.944 123.599C288.625 123.599 288.377 123.705 288.165 123.882C287.952 124.095 287.846 124.344 287.846 124.628V127.501H286.324C286.04 127.501 285.828 127.572 285.651 127.749ZM302.61 137.541C302.398 137.789 302.291 138.073 302.291 138.357C302.291 138.712 302.398 138.995 302.645 139.208C304.451 140.805 306.682 141.585 309.302 141.585C310.293 141.585 311.178 141.479 311.992 141.266C312.771 141.053 313.444 140.769 313.975 140.414C314.506 140.06 314.931 139.634 315.285 139.173C315.639 138.676 315.922 138.179 316.064 137.647C316.206 137.115 316.277 136.583 316.277 136.015C316.277 135.235 316.17 134.561 315.922 133.993C315.639 133.39 315.321 132.893 314.86 132.503C314.435 132.148 313.94 131.794 313.373 131.51C312.807 131.226 312.24 130.978 311.603 130.8C311.492 130.768 311.38 130.735 311.268 130.702C310.768 130.557 310.253 130.406 309.762 130.233C309.528 130.168 309.304 130.103 309.086 130.039C308.709 129.93 308.35 129.826 307.992 129.736C307.425 129.559 306.929 129.381 306.469 129.168C306.044 128.92 305.69 128.636 305.442 128.317C305.195 127.962 305.053 127.572 305.053 127.111C305.053 126.224 305.442 125.479 306.151 124.911C306.894 124.344 307.815 124.095 308.948 124.095C310.859 124.095 312.488 124.628 313.798 125.727C314.011 125.869 314.223 125.94 314.506 125.94C314.789 125.94 315.073 125.834 315.285 125.621C315.498 125.373 315.604 125.124 315.604 124.84C315.604 124.486 315.462 124.202 315.214 123.989C313.586 122.641 311.568 121.967 309.125 121.967C307.248 121.967 305.69 122.463 304.487 123.457C303.247 124.415 302.61 125.692 302.61 127.217C302.61 127.962 302.752 128.601 302.999 129.168C303.247 129.736 303.601 130.162 304.026 130.552C304.487 130.907 304.982 131.191 305.549 131.474C306.08 131.758 306.682 131.971 307.319 132.184C307.62 132.273 307.93 132.361 308.239 132.45C308.549 132.539 308.859 132.627 309.16 132.716L309.164 132.717C309.765 132.894 310.365 133.071 310.93 133.248C311.497 133.426 311.992 133.638 312.417 133.887C312.878 134.135 313.196 134.454 313.479 134.845C313.727 135.235 313.834 135.696 313.834 136.193C313.834 136.583 313.763 136.973 313.621 137.328C313.479 137.683 313.232 138.037 312.878 138.392C312.559 138.712 312.099 138.96 311.497 139.173C310.895 139.386 310.187 139.492 309.372 139.492C307.39 139.492 305.619 138.783 304.062 137.399C303.885 137.257 303.672 137.151 303.389 137.151C303.07 137.151 302.822 137.293 302.61 137.541ZM318.259 127.643C318.046 127.856 317.94 128.104 317.94 128.352C317.94 128.494 317.975 128.636 318.011 128.743L323.251 141.372L322.33 143.465C322.082 143.997 321.799 144.388 321.48 144.6C321.162 144.813 320.808 144.92 320.418 144.92H320.312C320.241 144.92 320.135 144.92 319.958 144.884H319.604C319.356 144.884 319.144 144.991 318.967 145.168C318.754 145.345 318.683 145.594 318.683 145.842C318.683 146.055 318.719 146.232 318.825 146.374C318.896 146.516 319.073 146.623 319.25 146.694C319.309 146.705 319.368 146.721 319.427 146.737C319.545 146.768 319.663 146.8 319.781 146.8H320.347C322.259 146.8 323.605 145.878 324.384 144.033L330.757 128.743C330.792 128.636 330.827 128.494 330.827 128.352C330.827 128.069 330.721 127.82 330.509 127.643C330.296 127.43 330.049 127.324 329.73 127.324C329.482 127.324 329.305 127.395 329.128 127.501C328.951 127.607 328.809 127.785 328.739 127.962L324.384 138.747L319.993 127.962C319.852 127.536 319.498 127.324 319.002 127.324C318.719 127.324 318.471 127.43 318.259 127.643ZM332.669 138.499C332.492 138.676 332.385 138.889 332.385 139.137C332.385 139.421 332.492 139.634 332.704 139.811C334.014 140.982 335.713 141.585 337.802 141.585C339.502 141.585 340.847 141.195 341.768 140.414C342.724 139.598 343.184 138.605 343.184 137.399C343.184 136.725 343.042 136.122 342.724 135.625C342.405 135.128 341.98 134.738 341.484 134.454C340.989 134.17 340.422 133.958 339.82 133.78C339.548 133.7 339.268 133.627 338.99 133.554C338.655 133.467 338.325 133.381 338.015 133.284C337.668 133.181 337.334 133.091 337.017 133.006C336.784 132.943 336.561 132.883 336.351 132.822C335.855 132.68 335.466 132.468 335.147 132.184C334.864 131.9 334.722 131.581 334.722 131.155C334.722 130.516 334.97 129.984 335.536 129.559C336.103 129.133 336.811 128.92 337.732 128.92C339.112 128.92 340.281 129.275 341.272 130.055C341.414 130.162 341.626 130.233 341.839 130.233C342.051 130.233 342.263 130.162 342.44 129.984C342.617 129.807 342.688 129.63 342.688 129.381C342.688 129.133 342.582 128.92 342.405 128.778C341.166 127.678 339.608 127.146 337.732 127.146C336.174 127.146 334.934 127.536 334.014 128.281C333.093 129.062 332.633 130.02 332.633 131.12C332.633 131.794 332.775 132.397 333.093 132.893C333.412 133.39 333.837 133.78 334.333 134.029C334.828 134.312 335.359 134.525 335.997 134.703C336.298 134.791 336.599 134.871 336.9 134.951C337.201 135.031 337.501 135.111 337.802 135.199C338.169 135.314 338.536 135.414 338.884 135.509C339.073 135.56 339.256 135.61 339.431 135.66C339.927 135.838 340.352 136.051 340.67 136.335C340.953 136.654 341.13 137.044 341.13 137.47C341.13 138.179 340.847 138.747 340.281 139.173C339.714 139.598 338.9 139.811 337.873 139.811C336.457 139.811 335.147 139.35 333.943 138.428C333.766 138.321 333.589 138.25 333.341 138.25C333.058 138.25 332.846 138.321 332.669 138.499ZM344.919 127.749C344.742 127.927 344.636 128.14 344.636 128.423C344.636 128.707 344.742 128.92 344.919 129.133C345.096 129.31 345.308 129.417 345.556 129.417H347.079V138.357C347.079 139.385 347.326 140.166 347.857 140.734C348.353 141.301 349.132 141.585 350.123 141.585C350.442 141.585 350.761 141.55 351.044 141.514C351.327 141.479 351.575 141.408 351.823 141.337C352.071 141.23 352.283 141.088 352.425 140.946C352.566 140.769 352.637 140.592 352.637 140.379C352.637 140.13 352.566 139.918 352.389 139.74C352.177 139.563 351.964 139.492 351.752 139.492C351.648 139.492 351.526 139.511 351.37 139.535C351.313 139.544 351.252 139.553 351.186 139.563C350.938 139.634 350.725 139.669 350.619 139.669C350.159 139.669 349.805 139.527 349.557 139.208C349.344 138.889 349.203 138.463 349.203 137.931V129.417H351.256C351.504 129.417 351.717 129.31 351.894 129.133C352.071 128.955 352.177 128.743 352.177 128.459C352.177 128.175 352.071 127.962 351.894 127.785C351.717 127.572 351.504 127.501 351.256 127.501H349.203V124.627C349.203 124.344 349.097 124.095 348.92 123.918C348.707 123.705 348.459 123.599 348.212 123.599C347.893 123.599 347.61 123.705 347.397 123.882C347.185 124.095 347.079 124.344 347.079 124.627V127.501H345.556C345.308 127.501 345.096 127.572 344.919 127.749ZM355.081 130.729C354.514 131.829 354.231 133.035 354.231 134.348C354.231 136.476 354.868 138.215 356.178 139.563C357.488 140.911 359.152 141.585 361.171 141.585C361.631 141.585 362.162 141.514 362.728 141.408C363.295 141.301 363.861 141.159 364.428 140.982C364.994 140.805 365.455 140.556 365.844 140.237C366.234 139.953 366.411 139.598 366.411 139.279C366.411 139.031 366.34 138.818 366.163 138.64C365.95 138.463 365.773 138.392 365.561 138.392C365.419 138.392 365.242 138.428 365.101 138.534C364.003 139.385 362.764 139.811 361.383 139.811C359.967 139.811 358.798 139.35 357.913 138.463C356.993 137.541 356.497 136.405 356.426 135.057H366.375C366.694 135.057 366.977 134.951 367.19 134.703C367.437 134.49 367.544 134.206 367.544 133.887C367.544 133.674 367.473 133.213 367.331 132.468C366.977 130.836 366.234 129.559 365.136 128.601C364.003 127.643 362.622 127.146 360.958 127.146C359.684 127.146 358.515 127.465 357.488 128.104C356.462 128.743 355.647 129.63 355.081 130.729ZM365.455 133.496H356.426C356.462 132.964 356.568 132.432 356.78 131.9C356.993 131.368 357.276 130.871 357.63 130.41C357.984 129.984 358.444 129.594 359.011 129.346C359.577 129.062 360.25 128.92 360.958 128.92C361.702 128.92 362.374 129.062 362.941 129.346C363.543 129.63 364.003 129.984 364.392 130.445C364.711 130.907 364.994 131.403 365.171 131.9C365.348 132.432 365.455 132.964 365.455 133.496ZM371.013 128.352V140.379C371.013 140.663 371.084 140.911 371.297 141.124C371.509 141.301 371.757 141.408 372.04 141.408C372.323 141.408 372.607 141.301 372.819 141.124C373.031 140.911 373.138 140.663 373.138 140.379V131.19C373.527 130.623 374.058 130.126 374.731 129.7C375.404 129.275 376.076 129.062 376.714 129.062C378.413 129.062 379.263 130.02 379.263 131.9V140.379C379.263 140.663 379.369 140.911 379.581 141.124C379.758 141.301 380.006 141.408 380.29 141.408C380.608 141.408 380.856 141.301 381.068 141.124C381.281 140.911 381.387 140.663 381.387 140.379V131.155C381.777 130.587 382.308 130.091 382.98 129.7C383.653 129.275 384.361 129.062 385.034 129.062C385.884 129.062 386.521 129.31 386.91 129.807C387.335 130.304 387.548 131.013 387.548 131.9V140.379C387.548 140.663 387.654 140.911 387.866 141.124C388.079 141.301 388.327 141.408 388.61 141.408C388.893 141.408 389.141 141.301 389.353 141.124C389.566 140.911 389.672 140.663 389.672 140.379V131.297C389.672 129.913 389.353 128.885 388.716 128.21C388.079 127.501 387.123 127.146 385.848 127.146C384.928 127.146 384.007 127.43 383.157 127.927C382.308 128.459 381.67 129.062 381.245 129.736C381.033 128.955 380.608 128.352 380.006 127.856C379.369 127.395 378.555 127.146 377.563 127.146C376.643 127.146 375.758 127.395 374.908 127.927C374.058 128.423 373.456 128.955 373.138 129.488V128.352C373.138 128.069 373.031 127.856 372.819 127.643C372.607 127.43 372.359 127.324 372.111 127.324C371.792 127.324 371.544 127.43 371.332 127.643C371.12 127.82 371.013 128.069 371.013 128.352Z" fill="#191911"/>
<defs>
<linearGradient id="paint0_linear_3001_1291" x1="7.08108" y1="-28.3809" x2="81.6616" y2="108.077" gradientUnits="userSpaceOnUse">
<stop stop-color="#156BA3"/>
<stop offset="0.757007" stop-color="#5AC6C6"/>
</linearGradient>
<linearGradient id="paint1_linear_3001_1291" x1="255.999" y1="0" x2="255.999" y2="127.714" gradientUnits="userSpaceOnUse">
<stop offset="0.16593" stop-color="#5AC6C6"/>
<stop offset="1" stop-color="#156BA3"/>
</linearGradient>
</defs>
</svg>
