<svg width="16" height="16" viewBox="0 0 16 16" fill="none" xmlns="http://www.w3.org/2000/svg">
<g clip-path="url(#clip0)">
<path fill-rule="evenodd" clip-rule="evenodd" d="M6.58226 15.9882C2.84152 15.3168 0 12.0196 0 8.0571C0 7.09794 0.161859 6.17474 0.467592 5.32349C4.35221 5.37744 7.48747 8.56666 7.48747 12.4932C7.48747 13.7641 7.15776 14.9571 6.58226 15.9882Z" fill="#0F69CD"/>
<path fill-rule="evenodd" clip-rule="evenodd" d="M9.36449 15.9999C13.1292 15.3465 16.0007 12.0374 16.0007 8.05683C16.0007 7.12165 15.8389 6.22243 15.5511 5.38916C11.6485 5.41913 8.48926 8.62034 8.48926 12.5589C8.48926 13.8058 8.80698 14.9748 9.36449 15.9999Z" fill="#0F69CD"/>
<path fill-rule="evenodd" clip-rule="evenodd" d="M14.1416 2.89548C12.9066 5.01163 10.6226 6.43239 8.0089 6.43239C5.38919 6.43239 3.09918 5.00564 1.86426 2.88349C3.32698 1.12102 5.53306 0 7.99691 0C10.4668 0 12.6788 1.12702 14.1416 2.89548Z" fill="#0F69CD"/>
<path fill-rule="evenodd" clip-rule="evenodd" d="M8.00333 1.68433C8.8426 1.68433 9.526 2.36773 9.526 3.21299C9.526 3.80648 9.19629 4.32203 8.70472 4.5798C9.53799 4.75365 10.2574 5.22724 10.7669 5.87467C9.91566 6.23436 8.98647 6.43219 8.00932 6.43219C7.0082 6.43219 6.05503 6.22837 5.19178 5.8507C5.70134 5.19726 6.43869 4.72967 7.27796 4.56781C6.80437 4.30404 6.48066 3.80048 6.48066 3.21299C6.48066 2.36773 7.16406 1.68433 8.00333 1.68433ZM3.80099 8.96198C4.09474 8.96198 4.3645 9.04591 4.5923 9.18978C4.4784 8.83609 4.41845 8.46442 4.41845 8.07476C4.41845 7.61316 4.50238 7.17554 4.65825 6.77389C6.15694 7.9129 7.19404 9.63939 7.43383 11.6057C6.60055 11.4798 5.8572 11.0602 5.32367 10.4547V10.4966C5.32367 11.3419 4.64026 12.0313 3.80099 12.0313C2.96172 12.0313 2.27832 11.3419 2.27832 10.4966C2.27832 9.65138 2.96172 8.96198 3.80099 8.96198ZM12.1817 9.00395C13.021 9.00395 13.7044 9.68735 13.7044 10.5326C13.7044 11.3839 13.021 12.0673 12.1817 12.0673C11.3424 12.0673 10.659 11.3839 10.659 10.5326C10.659 10.4847 10.665 10.4367 10.665 10.3947C10.1375 11.0182 9.39412 11.4558 8.55485 11.5997C8.81262 9.66337 9.83174 7.97884 11.3005 6.85182C11.4383 7.23549 11.5163 7.64313 11.5163 8.07476C11.5163 8.49439 11.4383 8.90204 11.3065 9.27971C11.5522 9.10586 11.858 9.00395 12.1817 9.00395Z" fill="white"/>
</g>
<defs>
<clipPath id="clip0">
<rect width="16" height="16" fill="white"/>
</clipPath>
</defs>
</svg>
