<svg width="111" height="42" viewBox="0 0 111 42" fill="none" xmlns="http://www.w3.org/2000/svg">
<g clip-path="url(#clip0_3001_1291)">
<path fill-rule="evenodd" clip-rule="evenodd" d="M13.3599 11.1299C17.7199 11.1299 21.5299 8.7599 23.5899 5.2299C21.1499 2.2799 17.4599 0.399902 13.3399 0.399902C9.22986 0.399902 5.54986 2.2699 3.10986 5.2099C5.16986 8.7499 8.98986 11.1299 13.3599 11.1299ZM10.98 27.07C4.74 25.95 0 20.45 0 13.84C0 12.24 0.27 10.7 0.78 9.28003C7.26 9.37003 12.49 14.69 12.49 21.24C12.49 23.36 11.94 25.35 10.98 27.07ZM15.6202 27.0899C21.9002 25.9999 26.6902 20.4799 26.6902 13.8399C26.6902 12.2799 26.4202 10.7799 25.9402 9.38989C19.4302 9.43989 14.1602 14.7799 14.1602 21.3499C14.1602 23.4299 14.6902 25.3799 15.6202 27.0899Z" fill="url(#paint0_linear_3001_1291)"/>
<path fill-rule="evenodd" clip-rule="evenodd" d="M13.3498 3.20996C14.7498 3.20996 15.8898 4.34996 15.8898 5.75996C15.8898 6.74996 15.3398 7.60996 14.5198 8.03996C15.9098 8.32996 17.1098 9.11996 17.9598 10.2C16.5398 10.8 14.9898 11.13 13.3598 11.13C11.6898 11.13 10.0998 10.79 8.6598 10.16C9.5098 9.06996 10.7398 8.28996 12.1398 8.01996C11.3498 7.57996 10.8098 6.73996 10.8098 5.75996C10.8098 4.34996 11.9498 3.20996 13.3498 3.20996ZM6.3398 15.35C6.8298 15.35 7.2798 15.49 7.6598 15.73C7.4698 15.14 7.3698 14.52 7.3698 13.87C7.3698 13.1 7.5098 12.37 7.7698 11.7C10.2698 13.6 11.9998 16.48 12.3998 19.76C11.0098 19.55 9.7698 18.85 8.8798 17.84V17.91C8.8798 19.32 7.7398 20.47 6.3398 20.47C4.9398 20.47 3.7998 19.32 3.7998 17.91C3.7998 16.5 4.9398 15.35 6.3398 15.35ZM20.3198 15.42C21.7198 15.42 22.8598 16.56 22.8598 17.97C22.8598 19.39 21.7198 20.53 20.3198 20.53C18.9198 20.53 17.7798 19.39 17.7798 17.97C17.7798 17.89 17.7898 17.81 17.7898 17.74C16.9098 18.78 15.6698 19.51 14.2698 19.75C14.6998 16.52 16.3998 13.71 18.8498 11.83C19.0798 12.47 19.2098 13.15 19.2098 13.87C19.2098 14.57 19.0798 15.25 18.8598 15.88C19.2698 15.59 19.7798 15.42 20.3198 15.42Z" fill="white"/>
<path fill-rule="evenodd" clip-rule="evenodd" d="M35.52 24.67V2.8C35.52 2.14 35.76 1.57 36.22 1.1C36.69 0.63 37.26 0.4 37.92 0.4H51.76C52.16 0.4 52.5 0.54 52.78 0.84C53.06 1.13 53.2 1.49 53.2 1.92C53.2 2.32 53.06 2.66 52.78 2.94C52.5 3.21 52.16 3.35 51.76 3.35H38.84V11.95H51.49C51.89 11.95 52.23 12.1 52.51 12.39C52.79 12.69 52.93 13.05 52.93 13.48C52.93 13.89 52.79 14.23 52.51 14.5C52.23 14.77 51.89 14.91 51.49 14.91H38.84V24.11H51.76C52.16 24.11 52.5 24.25 52.78 24.53C53.06 24.81 53.2 25.15 53.2 25.55C53.2 25.98 53.06 26.34 52.78 26.63C52.5 26.92 52.16 27.07 51.76 27.07H37.92C37.26 27.07 36.69 26.84 36.22 26.37C35.76 25.9 35.52 25.33 35.52 24.67ZM58.27 25.67V2.88C58.27 2.14 58.55 1.52 59.09 0.99C59.63 0.46 60.27 0.2 61.03 0.2C61.57 0.2 62.09 0.35 62.59 0.66C63.08 0.96 63.44 1.37 63.66 1.88L71.3 20.47L78.99 1.88C79.22 1.37 79.57 0.96 80.06 0.66C80.55 0.35 81.07 0.2 81.63 0.2C82.39 0.2 83.03 0.46 83.57 0.99C84.11 1.52 84.39 2.14 84.39 2.88V25.67C84.39 26.12 84.23 26.51 83.91 26.83C83.59 27.15 83.19 27.31 82.71 27.31C82.25 27.31 81.87 27.15 81.55 26.83C81.23 26.51 81.07 26.12 81.07 25.67V5.12L72.1 26.8C71.97 27.14 71.69 27.31 71.26 27.31C70.88 27.31 70.63 27.14 70.5 26.8L61.59 5.12V25.67C61.59 26.12 61.43 26.51 61.11 26.83C60.79 27.15 60.39 27.31 59.91 27.31C59.46 27.31 59.07 27.15 58.75 26.83C58.43 26.51 58.27 26.12 58.27 25.67ZM89.37 23.03C89.37 22.6 89.52 22.21 89.81 21.86C90.11 21.52 90.48 21.35 90.93 21.35C91.31 21.35 91.63 21.46 91.89 21.68C94.06 23.62 96.56 24.59 99.36 24.59C100.5 24.59 101.49 24.45 102.34 24.17C103.2 23.89 103.85 23.52 104.31 23.04C104.78 22.58 105.11 22.09 105.33 21.58C105.54 21.07 105.65 20.54 105.65 20C105.65 19.26 105.47 18.63 105.12 18.07C104.76 17.52 104.27 17.07 103.66 16.73C103.05 16.38 102.35 16.09 101.55 15.85C100.75 15.61 99.92 15.36 99.05 15.1C98.18 14.84 97.31 14.58 96.44 14.32C95.56 14.06 94.73 13.74 93.94 13.35C93.16 12.97 92.46 12.53 91.84 12.03C91.23 11.53 90.75 10.88 90.39 10.09C90.03 9.31 89.85 8.4 89.85 7.39C89.85 5.21 90.72 3.43 92.45 2.06C94.18 0.68 96.37 0 99.01 0C102.44 0 105.29 0.94 107.56 2.82C107.94 3.15 108.13 3.55 108.13 4C108.13 4.41 107.97 4.78 107.67 5.11C107.37 5.43 106.99 5.59 106.57 5.59C106.2 5.59 105.88 5.48 105.61 5.25C103.72 3.72 101.44 2.95 98.78 2.95C97.16 2.95 95.84 3.35 94.82 4.14C93.8 4.93 93.29 5.95 93.29 7.21C93.29 7.85 93.47 8.41 93.82 8.89C94.18 9.37 94.66 9.77 95.28 10.08C95.89 10.39 96.59 10.65 97.38 10.89C98.18 11.12 99.02 11.37 99.89 11.62C100.76 11.88 101.64 12.13 102.51 12.39C103.38 12.65 104.2 12.98 105 13.39C105.78 13.8 106.48 14.27 107.09 14.81C107.71 15.35 108.19 16.03 108.55 16.87C108.91 17.7 109.09 18.64 109.09 19.71C109.09 20.52 108.98 21.28 108.77 22.02C108.55 22.76 108.19 23.46 107.69 24.14C107.19 24.83 106.57 25.42 105.83 25.91C105.09 26.4 104.16 26.8 103.03 27.1C101.9 27.4 100.64 27.55 99.25 27.55C95.55 27.55 92.44 26.44 89.9 24.24C89.55 23.92 89.37 23.52 89.37 23.03Z" fill="url(#paint1_linear_3001_1291)"/>
<path fill-rule="evenodd" clip-rule="evenodd" d="M0.27002 34.9399V39.3299C0.27002 39.4599 0.31002 39.5799 0.41002 39.6699C0.50002 39.7699 0.62002 39.8099 0.75002 39.8099H3.53002C3.61002 39.8099 3.67002 39.7799 3.73002 39.7199C3.79002 39.6599 3.81002 39.5899 3.81002 39.5099C3.81002 39.4299 3.79002 39.3599 3.73002 39.2999C3.67002 39.2499 3.61002 39.2199 3.53002 39.2199H0.930019V37.3699H3.47002C3.55002 37.3699 3.62002 37.3499 3.67002 37.2899C3.73002 37.2399 3.76002 37.1699 3.76002 37.0899C3.76002 36.9999 3.73002 36.9299 3.67002 36.8699C3.62002 36.8099 3.55002 36.7799 3.47002 36.7799H0.930019V35.0599H3.53002C3.61002 35.0599 3.67002 35.0299 3.73002 34.9699C3.79002 34.9199 3.81002 34.8499 3.81002 34.7699C3.81002 34.6799 3.79002 34.6099 3.73002 34.5499C3.67002 34.4899 3.61002 34.4599 3.53002 34.4599H0.75002C0.62002 34.4599 0.50002 34.5099 0.41002 34.5999C0.31002 34.6999 0.27002 34.8099 0.27002 34.9399ZM4.81002 36.1799V39.5699C4.81002 39.6499 4.84002 39.7199 4.89002 39.7799C4.95002 39.8299 5.02002 39.8599 5.10002 39.8599C5.19002 39.8599 5.26002 39.8299 5.32002 39.7799C5.38002 39.7199 5.41002 39.6499 5.41002 39.5699V36.9799C5.52002 36.8199 5.67002 36.6799 5.86002 36.5599C6.05002 36.4399 6.24002 36.3799 6.43002 36.3799C6.90002 36.3799 7.14002 36.6499 7.14002 37.1799V39.5699C7.14002 39.6499 7.17002 39.7199 7.23002 39.7799C7.29002 39.8299 7.36002 39.8599 7.44002 39.8599C7.52002 39.8599 7.59002 39.8299 7.65002 39.7799C7.71002 39.7199 7.74002 39.6499 7.74002 39.5699V36.9699C7.85002 36.8099 8.00002 36.6699 8.19002 36.5599C8.38002 36.4399 8.58002 36.3799 8.77002 36.3799C9.01002 36.3799 9.19002 36.4499 9.31002 36.5899C9.43002 36.7299 9.48002 36.9299 9.48002 37.1799V39.5699C9.48002 39.6499 9.51002 39.7199 9.57002 39.7799C9.63002 39.8299 9.70002 39.8599 9.78002 39.8599C9.86002 39.8599 9.93002 39.8299 9.99002 39.7799C10.05 39.7199 10.09 39.6499 10.09 39.5699V37.0099C10.09 36.6199 9.99002 36.3299 9.81002 36.1399C9.63002 35.9399 9.36002 35.8399 9.00002 35.8399C8.74002 35.8399 8.49002 35.9199 8.24002 36.0599C8.00002 36.2099 7.82002 36.3799 7.70002 36.5699C7.64002 36.3499 7.52002 36.1799 7.35002 36.0399C7.17002 35.9099 6.94002 35.8399 6.66002 35.8399C6.40002 35.8399 6.15002 35.9099 5.91002 36.0599C5.67002 36.1999 5.51002 36.3499 5.41002 36.4999V36.1799C5.41002 36.0999 5.38002 36.0399 5.32002 35.9799C5.26002 35.9199 5.19002 35.8899 5.12002 35.8899C5.03002 35.8899 4.96002 35.9199 4.90002 35.9799C4.84002 36.0299 4.81002 36.0999 4.81002 36.1799ZM11.29 36.1799V41.0499C11.29 41.1199 11.31 41.1899 11.37 41.2499C11.43 41.3099 11.5 41.3399 11.58 41.3399C11.66 41.3399 11.74 41.3099 11.8 41.2499C11.86 41.1899 11.89 41.1199 11.89 41.0499V39.2299C12.04 39.4399 12.23 39.6099 12.46 39.7299C12.69 39.8499 12.93 39.9099 13.19 39.9099C13.71 39.9099 14.12 39.7199 14.44 39.3499C14.75 38.9799 14.91 38.4899 14.91 37.8699C14.91 37.2499 14.75 36.7499 14.44 36.3899C14.12 36.0199 13.71 35.8399 13.19 35.8399C12.93 35.8399 12.68 35.8999 12.45 36.0299C12.22 36.1499 12.03 36.3099 11.89 36.5199V36.1799C11.89 36.0999 11.86 36.0399 11.8 35.9799C11.74 35.9199 11.67 35.8899 11.6 35.8899C11.51 35.8899 11.44 35.9199 11.38 35.9799C11.32 36.0299 11.29 36.0999 11.29 36.1799ZM12.37 39.1899C12.16 39.0699 11.99 38.9199 11.89 38.7499V36.9999C11.99 36.8299 12.16 36.6799 12.37 36.5599C12.59 36.4399 12.81 36.3799 13.04 36.3799C13.42 36.3799 13.73 36.5199 13.95 36.7999C14.17 37.0699 14.29 37.4299 14.29 37.8699C14.29 38.3099 14.17 38.6699 13.95 38.9499C13.73 39.2299 13.42 39.3699 13.04 39.3699C12.81 39.3699 12.59 39.3099 12.37 39.1899ZM15.87 34.6999V39.5699C15.87 39.6499 15.9 39.7199 15.96 39.7699C16.02 39.8299 16.09 39.8599 16.17 39.8599C16.25 39.8599 16.32 39.8299 16.38 39.7699C16.44 39.7199 16.47 39.6499 16.47 39.5699V34.6999C16.47 34.6199 16.45 34.5599 16.39 34.4999C16.33 34.4399 16.26 34.4099 16.18 34.4099C16.1 34.4099 16.02 34.4399 15.96 34.4999C15.9 34.5499 15.87 34.6199 15.87 34.6999ZM17.45 37.8699C17.45 38.2499 17.53 38.5899 17.68 38.8999C17.84 39.1999 18.06 39.4499 18.35 39.6299C18.65 39.8199 18.99 39.9099 19.37 39.9099C19.75 39.9099 20.09 39.8199 20.38 39.6299C20.68 39.4499 20.9 39.1999 21.05 38.8999C21.2 38.5899 21.28 38.2499 21.28 37.8699C21.28 37.4999 21.2 37.1499 21.05 36.8499C20.9 36.5399 20.68 36.2999 20.38 36.1199C20.09 35.9299 19.75 35.8399 19.37 35.8399C18.99 35.8399 18.65 35.9299 18.35 36.1199C18.06 36.2999 17.84 36.5399 17.68 36.8499C17.53 37.1499 17.45 37.4999 17.45 37.8699ZM18.43 38.9299C18.19 38.6399 18.08 38.2899 18.08 37.8699C18.08 37.6099 18.13 37.3599 18.22 37.1399C18.32 36.9099 18.47 36.7299 18.67 36.5899C18.87 36.4499 19.1 36.3799 19.37 36.3799C19.64 36.3799 19.87 36.4499 20.07 36.5899C20.26 36.7299 20.41 36.9099 20.51 37.1299C20.6 37.3599 20.65 37.5999 20.65 37.8699C20.65 38.1399 20.6 38.3899 20.51 38.6099C20.41 38.8399 20.26 39.0199 20.07 39.1599C19.87 39.2999 19.64 39.3699 19.37 39.3699C18.97 39.3699 18.66 39.2299 18.43 38.9299ZM21.89 35.9799C21.83 36.0399 21.8 36.1099 21.8 36.1799C21.8 36.2199 21.81 36.2599 21.83 36.2899L23.31 39.8499L23.05 40.4399C22.98 40.5899 22.9 40.6999 22.8 40.7599C22.72 40.8199 22.62 40.8499 22.51 40.8499H22.48C22.46 40.8499 22.43 40.8499 22.38 40.8399H22.28C22.21 40.8399 22.15 40.8699 22.09 40.9199C22.04 40.9699 22.01 41.0399 22.01 41.1099C22.01 41.1699 22.03 41.2199 22.05 41.2599C22.08 41.2999 22.12 41.3299 22.18 41.3499C22.1983 41.3535 22.2167 41.3586 22.2345 41.3634C22.2653 41.3719 22.2947 41.3799 22.32 41.3799H22.49C23.03 41.3799 23.41 41.1199 23.63 40.5999L25.42 36.2899C25.44 36.2599 25.45 36.2199 25.45 36.1799C25.45 36.0999 25.42 36.0299 25.36 35.9799C25.3 35.9199 25.22 35.8899 25.14 35.8899C25.07 35.8899 25.01 35.9099 24.96 35.9399C24.91 35.9699 24.88 36.0199 24.85 36.0699L23.63 39.1099L22.39 36.0699C22.34 35.9499 22.25 35.8899 22.11 35.8899C22.03 35.8899 21.95 35.9199 21.89 35.9799ZM26.21 36.8499C26.05 37.1599 25.97 37.4999 25.97 37.8699C25.97 38.4699 26.15 38.9599 26.52 39.3399C26.89 39.7199 27.36 39.9099 27.94 39.9099C28.06 39.9099 28.21 39.8899 28.37 39.8599C28.53 39.8299 28.69 39.7899 28.85 39.7399C29.01 39.6899 29.14 39.6199 29.25 39.5299C29.36 39.4499 29.41 39.3499 29.41 39.2599C29.41 39.1899 29.39 39.1299 29.34 39.0799C29.29 39.0299 29.23 39.0099 29.17 39.0099C29.13 39.0099 29.08 39.0199 29.04 39.0499C28.73 39.2899 28.38 39.4099 27.99 39.4099C27.59 39.4099 27.26 39.2799 27.01 39.0299C26.75 38.7699 26.62 38.4499 26.59 38.0699H29.4C29.49 38.0699 29.57 38.0399 29.63 37.9699C29.7 37.9099 29.73 37.8299 29.73 37.7399C29.73 37.6799 29.71 37.5499 29.67 37.3399C29.57 36.8799 29.36 36.5199 29.05 36.2499C28.73 35.9799 28.34 35.8399 27.87 35.8399C27.51 35.8399 27.18 35.9299 26.89 36.1099C26.6 36.2899 26.37 36.5399 26.21 36.8499ZM29.14 37.6299H26.59C26.6 37.4799 26.63 37.3299 26.69 37.1799C26.75 37.0299 26.83 36.8899 26.93 36.7599C27.03 36.6399 27.16 36.5299 27.32 36.4599C27.48 36.3799 27.67 36.3399 27.87 36.3399C28.08 36.3399 28.27 36.3799 28.43 36.4599C28.6 36.5399 28.74 36.6399 28.84 36.7699C28.93 36.8999 29.01 37.0399 29.06 37.1799C29.11 37.3299 29.14 37.4799 29.14 37.6299ZM30.73 36.8499C30.56 37.1599 30.48 37.4999 30.48 37.8699C30.48 38.4699 30.67 38.9599 31.03 39.3399C31.4 39.7199 31.88 39.9099 32.45 39.9099C32.58 39.9099 32.72 39.8899 32.89 39.8599C33.05 39.8299 33.21 39.7899 33.37 39.7399C33.53 39.6899 33.66 39.6199 33.77 39.5299C33.88 39.4499 33.93 39.3499 33.93 39.2599C33.93 39.1899 33.91 39.1299 33.85 39.0799C33.8 39.0299 33.75 39.0099 33.69 39.0099C33.64 39.0099 33.6 39.0199 33.56 39.0499C33.24 39.2899 32.89 39.4099 32.51 39.4099C32.1 39.4099 31.77 39.2799 31.52 39.0299C31.27 38.7699 31.13 38.4499 31.11 38.0699H33.91C34.01 38.0699 34.08 38.0399 34.15 37.9699C34.21 37.9099 34.24 37.8299 34.24 37.7399C34.24 37.6799 34.22 37.5499 34.18 37.3399C34.08 36.8799 33.88 36.5199 33.56 36.2499C33.25 35.9799 32.86 35.8399 32.39 35.8399C32.03 35.8399 31.7 35.9299 31.41 36.1099C31.12 36.2899 30.89 36.5399 30.73 36.8499ZM33.66 37.6299H31.11C31.12 37.4799 31.15 37.3299 31.21 37.1799C31.26 37.0299 31.34 36.8899 31.44 36.7599C31.54 36.6399 31.68 36.5299 31.84 36.4599C32 36.3799 32.18 36.3399 32.38 36.3399C32.59 36.3399 32.78 36.3799 32.95 36.4599C33.12 36.5399 33.25 36.6399 33.35 36.7699C33.45 36.8999 33.53 37.0399 33.58 37.1799C33.63 37.3299 33.66 37.4799 33.66 37.6299ZM37.31 34.9599V39.5299C37.31 39.6199 37.35 39.6999 37.41 39.7599C37.47 39.8299 37.55 39.8599 37.64 39.8599C37.74 39.8599 37.82 39.8299 37.88 39.7599C37.95 39.6999 37.98 39.6199 37.98 39.5299V35.4099L39.77 39.7599C39.79 39.8299 39.84 39.8599 39.92 39.8599C40 39.8599 40.06 39.8299 40.09 39.7599L41.89 35.4099V39.5299C41.89 39.6199 41.92 39.6999 41.98 39.7599C42.05 39.8299 42.12 39.8599 42.21 39.8599C42.31 39.8599 42.39 39.8299 42.46 39.7599C42.52 39.6999 42.55 39.6199 42.55 39.5299V34.9599C42.55 34.8099 42.5 34.6899 42.39 34.5799C42.28 34.4799 42.15 34.4199 42 34.4199C41.89 34.4199 41.78 34.4499 41.68 34.5099C41.59 34.5799 41.52 34.6599 41.47 34.7599L39.93 38.4899L38.4 34.7599C38.35 34.6599 38.28 34.5799 38.18 34.5099C38.08 34.4499 37.98 34.4199 37.87 34.4199C37.72 34.4199 37.59 34.4799 37.48 34.5799C37.37 34.6899 37.31 34.8099 37.31 34.9599ZM43.68 38.0599C43.6 38.2199 43.56 38.4099 43.56 38.6199C43.56 38.8899 43.63 39.1199 43.77 39.3299C43.9 39.5299 44.07 39.6699 44.28 39.7699C44.48 39.8599 44.69 39.9099 44.92 39.9099C45.44 39.9099 45.87 39.7299 46.2 39.3599V39.5399C46.2 39.6299 46.23 39.6999 46.28 39.7699C46.34 39.8299 46.41 39.8599 46.5 39.8599C46.58 39.8599 46.65 39.8299 46.71 39.7799C46.77 39.7199 46.8 39.6499 46.8 39.5699V37.1499C46.8 36.9199 46.76 36.7199 46.68 36.5499C46.6 36.3799 46.5 36.2399 46.36 36.1399C46.22 36.0399 46.06 35.9699 45.89 35.9199C45.71 35.8699 45.52 35.8399 45.31 35.8399C44.74 35.8399 44.26 36.0199 43.86 36.3799C43.81 36.4199 43.78 36.4799 43.78 36.5599C43.78 36.6299 43.81 36.6899 43.86 36.7299C43.92 36.7699 43.98 36.7999 44.05 36.7999C44.11 36.7999 44.17 36.7799 44.22 36.7299C44.52 36.4899 44.85 36.3599 45.22 36.3599C45.51 36.3599 45.74 36.4399 45.93 36.5799C46.11 36.7299 46.2 36.9299 46.2 37.1799V37.8799C45.89 37.5199 45.47 37.3399 44.92 37.3399C44.75 37.3399 44.58 37.3699 44.43 37.4199C44.27 37.4799 44.12 37.5499 43.99 37.6499C43.86 37.7499 43.76 37.8899 43.68 38.0599ZM44.45 39.2299C44.28 39.0699 44.19 38.8699 44.19 38.6299C44.19 38.3799 44.28 38.1799 44.45 38.0199C44.63 37.8599 44.86 37.7799 45.14 37.7799C45.36 37.7799 45.56 37.8199 45.75 37.9099C45.94 37.9899 46.09 38.1099 46.2 38.2599V38.9899C46.09 39.1399 45.94 39.2599 45.75 39.3399C45.56 39.4299 45.36 39.4699 45.14 39.4699C44.86 39.4699 44.63 39.3899 44.45 39.2299ZM48 36.1799V39.5699C48 39.6499 48.03 39.7199 48.09 39.7799C48.15 39.8299 48.22 39.8599 48.3 39.8599C48.38 39.8599 48.45 39.8299 48.51 39.7799C48.57 39.7199 48.6 39.6499 48.6 39.5699V36.9799C48.72 36.8099 48.89 36.6699 49.1 36.5599C49.31 36.4399 49.53 36.3799 49.75 36.3799C50.03 36.3799 50.25 36.4499 50.39 36.5899C50.54 36.7299 50.62 36.9599 50.62 37.2799V39.5699C50.62 39.6499 50.65 39.7199 50.71 39.7799C50.76 39.8299 50.83 39.8599 50.91 39.8599C51 39.8599 51.07 39.8299 51.13 39.7799C51.19 39.7199 51.22 39.6499 51.22 39.5699V37.0899C51.22 36.2599 50.81 35.8399 49.98 35.8399C49.71 35.8399 49.45 35.9099 49.21 36.0399C48.96 36.1699 48.75 36.3199 48.6 36.4999V36.1799C48.6 36.0999 48.57 36.0399 48.52 35.9799C48.46 35.9199 48.39 35.8899 48.31 35.8899C48.23 35.8899 48.15 35.9199 48.09 35.9799C48.03 36.0299 48 36.0999 48 36.1799ZM52.32 38.0599C52.24 38.2199 52.2 38.4099 52.2 38.6199C52.2 38.8899 52.27 39.1199 52.41 39.3299C52.55 39.5299 52.72 39.6699 52.92 39.7699C53.12 39.8599 53.34 39.9099 53.56 39.9099C54.09 39.9099 54.52 39.7299 54.84 39.3599V39.5399C54.84 39.6299 54.87 39.6999 54.93 39.7699C54.99 39.8299 55.06 39.8599 55.14 39.8599C55.22 39.8599 55.3 39.8299 55.36 39.7799C55.42 39.7199 55.45 39.6499 55.45 39.5699V37.1499C55.45 36.9199 55.41 36.7199 55.33 36.5499C55.25 36.3799 55.14 36.2399 55 36.1399C54.86 36.0399 54.71 35.9699 54.53 35.9199C54.35 35.8699 54.16 35.8399 53.95 35.8399C53.38 35.8399 52.9 36.0199 52.5 36.3799C52.45 36.4199 52.43 36.4799 52.43 36.5599C52.43 36.6299 52.45 36.6899 52.51 36.7299C52.56 36.7699 52.62 36.7999 52.69 36.7999C52.76 36.7999 52.81 36.7799 52.86 36.7299C53.16 36.4899 53.5 36.3599 53.87 36.3599C54.15 36.3599 54.39 36.4399 54.57 36.5799C54.75 36.7299 54.84 36.9299 54.84 37.1799V37.8799C54.54 37.5199 54.11 37.3399 53.56 37.3399C53.39 37.3399 53.23 37.3699 53.07 37.4199C52.91 37.4799 52.77 37.5499 52.64 37.6499C52.51 37.7499 52.4 37.8899 52.32 38.0599ZM53.1 39.2299C52.92 39.0699 52.83 38.8699 52.83 38.6299C52.83 38.3799 52.92 38.1799 53.1 38.0199C53.28 37.8599 53.5 37.7799 53.78 37.7799C54 37.7799 54.2 37.8199 54.39 37.9099C54.58 37.9899 54.73 38.1099 54.84 38.2599V38.9899C54.73 39.1399 54.58 39.2599 54.39 39.3399C54.2 39.4299 54 39.4699 53.78 39.4699C53.5 39.4699 53.28 39.3899 53.1 39.2299ZM56.9 36.3899C56.58 36.7499 56.42 37.2399 56.42 37.8499C56.42 38.4699 56.58 38.9599 56.9 39.3199C57.22 39.6799 57.63 39.8599 58.15 39.8599C58.41 39.8599 58.66 39.7999 58.88 39.6699C59.11 39.5399 59.3 39.3699 59.45 39.1599V39.7199C59.45 39.9199 59.41 40.0999 59.35 40.2599C59.28 40.4099 59.18 40.5299 59.06 40.6199C58.95 40.7099 58.81 40.7799 58.67 40.8199C58.53 40.8699 58.37 40.8899 58.2 40.8899C57.97 40.8899 57.76 40.8599 57.58 40.7999C57.41 40.7499 57.24 40.6599 57.09 40.5199C57.05 40.4899 56.99 40.4699 56.93 40.4699C56.85 40.4699 56.79 40.4999 56.74 40.5499C56.69 40.5999 56.66 40.6599 56.66 40.7199C56.66 40.8099 56.69 40.8799 56.75 40.9299C56.95 41.0999 57.17 41.2199 57.4 41.2799C57.63 41.3499 57.9 41.3799 58.2 41.3799C58.4 41.3799 58.59 41.3699 58.76 41.3299C58.94 41.2999 59.1 41.2399 59.26 41.1599C59.42 41.0799 59.56 40.9699 59.67 40.8499C59.79 40.7199 59.88 40.5599 59.95 40.3699C60.01 40.1699 60.05 39.9499 60.05 39.6999V36.1799C60.05 36.0999 60.02 36.0399 59.96 35.9799C59.9 35.9199 59.83 35.8899 59.76 35.8899C59.67 35.8899 59.6 35.9199 59.54 35.9799C59.48 36.0299 59.45 36.0999 59.45 36.1799V36.5199C59.29 36.3099 59.1 36.1399 58.87 36.0199C58.65 35.8999 58.41 35.8399 58.15 35.8399C57.63 35.8399 57.22 36.0199 56.9 36.3899ZM57.38 38.9099C57.16 38.6399 57.05 38.2799 57.05 37.8499C57.05 37.4199 57.16 37.0599 57.38 36.7899C57.6 36.5199 57.91 36.3799 58.29 36.3799C58.52 36.3799 58.75 36.4399 58.96 36.5599C59.18 36.6799 59.34 36.8299 59.45 36.9999V38.6899C59.34 38.8599 59.17 39.0099 58.96 39.1399C58.75 39.2599 58.52 39.3199 58.29 39.3199C57.91 39.3199 57.61 39.1899 57.38 38.9099ZM61.27 36.8499C61.11 37.1599 61.02 37.4999 61.02 37.8699C61.02 38.4699 61.21 38.9599 61.58 39.3399C61.95 39.7199 62.42 39.9099 62.99 39.9099C63.12 39.9099 63.26 39.8899 63.43 39.8599C63.59 39.8299 63.75 39.7899 63.91 39.7399C64.07 39.6899 64.2 39.6199 64.31 39.5299C64.42 39.4499 64.47 39.3499 64.47 39.2599C64.47 39.1899 64.45 39.1299 64.4 39.0799C64.34 39.0299 64.29 39.0099 64.23 39.0099C64.19 39.0099 64.14 39.0199 64.1 39.0499C63.79 39.2899 63.44 39.4099 63.05 39.4099C62.65 39.4099 62.32 39.2799 62.06 39.0299C61.81 38.7699 61.67 38.4499 61.65 38.0699H64.46C64.55 38.0699 64.63 38.0399 64.69 37.9699C64.75 37.9099 64.79 37.8299 64.79 37.7399C64.79 37.6799 64.77 37.5499 64.73 37.3399C64.63 36.8799 64.42 36.5199 64.11 36.2499C63.79 35.9799 63.4 35.8399 62.93 35.8399C62.57 35.8399 62.24 35.9299 61.95 36.1099C61.66 36.2899 61.43 36.5399 61.27 36.8499ZM64.2 37.6299H61.65C61.66 37.4799 61.69 37.3299 61.75 37.1799C61.81 37.0299 61.89 36.8899 61.99 36.7599C62.09 36.6399 62.22 36.5299 62.38 36.4599C62.54 36.3799 62.72 36.3399 62.92 36.3399C63.14 36.3399 63.32 36.3799 63.49 36.4599C63.66 36.5399 63.79 36.6399 63.89 36.7699C63.99 36.8999 64.07 37.0399 64.12 37.1799C64.17 37.3299 64.2 37.4799 64.2 37.6299ZM65.76 36.1799V39.5699C65.76 39.6499 65.79 39.7199 65.85 39.7799C65.91 39.8299 65.98 39.8599 66.06 39.8599C66.14 39.8599 66.21 39.8299 66.28 39.7799C66.34 39.7199 66.37 39.6499 66.37 39.5699V36.9799C66.48 36.8199 66.63 36.6799 66.82 36.5599C67.01 36.4399 67.2 36.3799 67.38 36.3799C67.86 36.3799 68.1 36.6499 68.1 37.1799V39.5699C68.1 39.6499 68.13 39.7199 68.19 39.7799C68.24 39.8299 68.31 39.8599 68.39 39.8599C68.48 39.8599 68.55 39.8299 68.61 39.7799C68.67 39.7199 68.7 39.6499 68.7 39.5699V36.9699C68.8 36.8099 68.95 36.6699 69.15 36.5599C69.34 36.4399 69.53 36.3799 69.73 36.3799C69.96 36.3799 70.14 36.4499 70.26 36.5899C70.38 36.7299 70.44 36.9299 70.44 37.1799V39.5699C70.44 39.6499 70.47 39.7199 70.53 39.7799C70.58 39.8299 70.65 39.8599 70.74 39.8599C70.82 39.8599 70.89 39.8299 70.95 39.7799C71.01 39.7199 71.04 39.6499 71.04 39.5699V37.0099C71.04 36.6199 70.95 36.3299 70.77 36.1399C70.58 35.9399 70.32 35.8399 69.96 35.8399C69.7 35.8399 69.44 35.9199 69.2 36.0599C68.96 36.2099 68.78 36.3799 68.66 36.5699C68.6 36.3499 68.48 36.1799 68.31 36.0399C68.13 35.9099 67.9 35.8399 67.62 35.8399C67.36 35.8399 67.11 35.9099 66.87 36.0599C66.63 36.1999 66.46 36.3499 66.37 36.4999V36.1799C66.37 36.0999 66.34 36.0399 66.28 35.9799C66.22 35.9199 66.15 35.8899 66.07 35.8899C65.99 35.8899 65.92 35.9199 65.86 35.9799C65.8 36.0299 65.76 36.0999 65.76 36.1799ZM72.26 36.8499C72.1 37.1599 72.02 37.4999 72.02 37.8699C72.02 38.4699 72.2 38.9599 72.57 39.3399C72.94 39.7199 73.41 39.9099 73.99 39.9099C74.11 39.9099 74.26 39.8899 74.42 39.8599C74.59 39.8299 74.75 39.7899 74.9 39.7399C75.06 39.6899 75.2 39.6199 75.31 39.5299C75.41 39.4499 75.47 39.3499 75.47 39.2599C75.47 39.1899 75.44 39.1299 75.39 39.0799C75.34 39.0299 75.28 39.0099 75.23 39.0099C75.18 39.0099 75.14 39.0199 75.09 39.0499C74.78 39.2899 74.43 39.4099 74.04 39.4099C73.64 39.4099 73.31 39.2799 73.06 39.0299C72.81 38.7699 72.67 38.4499 72.64 38.0699H75.45C75.54 38.0699 75.62 38.0399 75.68 37.9699C75.75 37.9099 75.78 37.8299 75.78 37.7399C75.78 37.6799 75.76 37.5499 75.72 37.3399C75.62 36.8799 75.41 36.5199 75.1 36.2499C74.79 35.9799 74.4 35.8399 73.92 35.8399C73.56 35.8399 73.24 35.9299 72.95 36.1099C72.65 36.2899 72.42 36.5399 72.26 36.8499ZM75.19 37.6299H72.64C72.65 37.4799 72.68 37.3299 72.74 37.1799C72.8 37.0299 72.88 36.8899 72.98 36.7599C73.08 36.6399 73.21 36.5299 73.38 36.4599C73.54 36.3799 73.72 36.3399 73.92 36.3399C74.13 36.3399 74.32 36.3799 74.49 36.4599C74.65 36.5399 74.79 36.6399 74.89 36.7699C74.99 36.8999 75.06 37.0399 75.11 37.1799C75.17 37.3299 75.19 37.4799 75.19 37.6299ZM76.76 36.1799V39.5699C76.76 39.6499 76.79 39.7199 76.85 39.7799C76.9 39.8299 76.97 39.8599 77.05 39.8599C77.14 39.8599 77.21 39.8299 77.27 39.7799C77.33 39.7199 77.36 39.6499 77.36 39.5699V36.9799C77.48 36.8099 77.65 36.6699 77.86 36.5599C78.07 36.4399 78.28 36.3799 78.51 36.3799C78.79 36.3799 79 36.4499 79.15 36.5899C79.3 36.7299 79.37 36.9599 79.37 37.2799V39.5699C79.37 39.6499 79.4 39.7199 79.46 39.7799C79.52 39.8299 79.59 39.8599 79.67 39.8599C79.75 39.8599 79.83 39.8299 79.89 39.7799C79.95 39.7199 79.98 39.6499 79.98 39.5699V37.0899C79.98 36.2599 79.56 35.8399 78.74 35.8399C78.47 35.8399 78.21 35.9099 77.96 36.0399C77.71 36.1699 77.51 36.3199 77.36 36.4999V36.1799C77.36 36.0999 77.33 36.0399 77.27 35.9799C77.21 35.9199 77.15 35.8899 77.07 35.8899C76.98 35.8899 76.91 35.9199 76.85 35.9799C76.79 36.0299 76.76 36.0999 76.76 36.1799ZM80.68 36.0099C80.63 36.0599 80.61 36.1199 80.61 36.1999C80.61 36.2799 80.63 36.3399 80.68 36.3999C80.73 36.4499 80.79 36.4799 80.87 36.4799H81.3V38.9999C81.3 39.2899 81.37 39.5099 81.51 39.6699C81.66 39.8299 81.87 39.9099 82.15 39.9099C82.25 39.9099 82.33 39.8999 82.4099 39.8899L82.41 39.8899C82.49 39.8799 82.57 39.8599 82.64 39.8399C82.71 39.8099 82.77 39.7699 82.81 39.7299C82.85 39.6799 82.87 39.6299 82.87 39.5699C82.87 39.4999 82.84 39.4399 82.79 39.3899C82.74 39.3399 82.68 39.3199 82.61 39.3199C82.5894 39.3199 82.5594 39.3246 82.52 39.3308C82.502 39.3336 82.482 39.3367 82.46 39.3399C82.38 39.3599 82.33 39.3699 82.29 39.3699C82.16 39.3699 82.06 39.3299 82 39.2399C81.93 39.1499 81.9 39.0299 81.9 38.8799V36.4799H82.48C82.55 36.4799 82.61 36.4499 82.66 36.3999C82.71 36.3499 82.73 36.2899 82.73 36.2099C82.73 36.1299 82.71 36.0699 82.66 36.0199C82.61 35.9599 82.55 35.9399 82.48 35.9399H81.9V35.1299C81.9 35.0499 81.87 34.9799 81.81 34.9299C81.75 34.8699 81.69 34.8399 81.61 34.8399C81.52 34.8399 81.45 34.8699 81.39 34.9199C81.33 34.9799 81.3 35.0499 81.3 35.1299V35.9399H80.87C80.79 35.9399 80.73 35.9599 80.68 36.0099ZM85.47 38.7699C85.41 38.8399 85.38 38.9199 85.38 38.9999C85.38 39.0999 85.41 39.1799 85.48 39.2399C85.99 39.6899 86.62 39.9099 87.36 39.9099C87.64 39.9099 87.89 39.8799 88.12 39.8199C88.34 39.7599 88.53 39.6799 88.68 39.5799C88.83 39.4799 88.95 39.3599 89.05 39.2299C89.15 39.0899 89.23 38.9499 89.27 38.7999C89.31 38.6499 89.33 38.4999 89.33 38.3399C89.33 38.1199 89.3 37.9299 89.23 37.7699C89.15 37.5999 89.06 37.4599 88.93 37.3499C88.81 37.2499 88.67 37.1499 88.51 37.0699C88.35 36.9899 88.19 36.9199 88.01 36.8699C87.9787 36.8607 87.9471 36.8515 87.9153 36.8422C87.7741 36.8011 87.6287 36.7588 87.49 36.7099C87.424 36.6915 87.3606 36.6732 87.299 36.6554C87.1926 36.6245 87.0913 36.5952 86.99 36.5699C86.83 36.5199 86.69 36.4699 86.56 36.4099C86.44 36.3399 86.34 36.2599 86.27 36.1699C86.2 36.0699 86.16 35.9599 86.16 35.8299C86.16 35.5799 86.27 35.3699 86.47 35.2099C86.68 35.0499 86.94 34.9799 87.26 34.9799C87.8 34.9799 88.26 35.1299 88.63 35.4399C88.69 35.4799 88.75 35.4999 88.83 35.4999C88.91 35.4999 88.99 35.4699 89.05 35.4099C89.11 35.3399 89.14 35.2699 89.14 35.1899C89.14 35.0899 89.1 35.0099 89.03 34.9499C88.57 34.5699 88 34.3799 87.31 34.3799C86.78 34.3799 86.34 34.5199 86 34.7999C85.65 35.0699 85.47 35.4299 85.47 35.8599C85.47 36.0699 85.51 36.2499 85.58 36.4099C85.65 36.5699 85.75 36.6899 85.87 36.7999C86 36.8999 86.14 36.9799 86.3 37.0599C86.45 37.1399 86.62 37.1999 86.8 37.2599C86.885 37.2849 86.9725 37.3099 87.06 37.3349C87.1475 37.3599 87.235 37.3849 87.32 37.4099C87.49 37.4599 87.66 37.5099 87.82 37.5599C87.98 37.6099 88.12 37.6699 88.24 37.7399C88.37 37.8099 88.46 37.8999 88.54 38.0099C88.61 38.1199 88.64 38.2499 88.64 38.3899C88.64 38.4999 88.62 38.6099 88.58 38.7099C88.54 38.8099 88.47 38.9099 88.37 39.0099C88.28 39.0999 88.15 39.1699 87.98 39.2299C87.81 39.2899 87.61 39.3199 87.38 39.3199C86.82 39.3199 86.32 39.1199 85.88 38.7299C85.83 38.6899 85.77 38.6599 85.69 38.6599C85.6 38.6599 85.53 38.6999 85.47 38.7699ZM89.8898 35.9798C89.8298 36.0398 89.7998 36.1098 89.7998 36.1798C89.7998 36.2198 89.8098 36.2598 89.8198 36.2898L91.2998 39.8498L91.0398 40.4398C90.9698 40.5898 90.8898 40.6998 90.7998 40.7598C90.7098 40.8198 90.6098 40.8498 90.4998 40.8498H90.4698C90.4498 40.8498 90.4198 40.8498 90.3698 40.8398H90.2698C90.1998 40.8398 90.1398 40.8698 90.0898 40.9198C90.0298 40.9698 90.0098 41.0398 90.0098 41.1098C90.0098 41.1698 90.0198 41.2198 90.0498 41.2598C90.0698 41.2998 90.1198 41.3298 90.1698 41.3498C90.1865 41.3532 90.2031 41.3576 90.2198 41.3621C90.2532 41.371 90.2865 41.3798 90.3198 41.3798H90.4798C91.0198 41.3798 91.3998 41.1198 91.6198 40.5998L93.4198 36.2898C93.4298 36.2598 93.4398 36.2198 93.4398 36.1798C93.4398 36.0998 93.4098 36.0298 93.3498 35.9798C93.2898 35.9198 93.2198 35.8898 93.1298 35.8898C93.0598 35.8898 93.0098 35.9098 92.9598 35.9398C92.9098 35.9698 92.8698 36.0198 92.8498 36.0698L91.6198 39.1098L90.3798 36.0698C90.3398 35.9498 90.2398 35.8898 90.0998 35.8898C90.0198 35.8898 89.9498 35.9198 89.8898 35.9798ZM93.9598 39.0398C93.9098 39.0898 93.8798 39.1498 93.8798 39.2198C93.8798 39.2998 93.9098 39.3598 93.9698 39.4098C94.3398 39.7398 94.8198 39.9098 95.4098 39.9098C95.8898 39.9098 96.2698 39.7998 96.5298 39.5798C96.7998 39.3498 96.9298 39.0698 96.9298 38.7298C96.9298 38.5398 96.8898 38.3698 96.7998 38.2298C96.7098 38.0898 96.5898 37.9798 96.4498 37.8998C96.3098 37.8198 96.1498 37.7598 95.9798 37.7098C95.9028 37.6872 95.8237 37.6666 95.7453 37.6462C95.6508 37.6215 95.5573 37.5972 95.4698 37.5698C95.372 37.5411 95.2774 37.5156 95.1881 37.4915C95.1223 37.4738 95.0592 37.4568 94.9998 37.4398C94.8598 37.3998 94.7498 37.3398 94.6598 37.2598C94.5798 37.1798 94.5398 37.0898 94.5398 36.9698C94.5398 36.7898 94.6098 36.6398 94.7698 36.5198C94.9298 36.3998 95.1298 36.3398 95.3898 36.3398C95.7798 36.3398 96.1098 36.4398 96.3898 36.6598C96.4298 36.6898 96.4898 36.7098 96.5498 36.7098C96.6098 36.7098 96.6698 36.6898 96.7198 36.6398C96.7698 36.5898 96.7898 36.5398 96.7898 36.4698C96.7898 36.3998 96.7598 36.3398 96.7098 36.2998C96.3598 35.9898 95.9198 35.8398 95.3898 35.8398C94.9498 35.8398 94.5998 35.9498 94.3398 36.1598C94.0798 36.3798 93.9498 36.6498 93.9498 36.9598C93.9498 37.1498 93.9898 37.3198 94.0798 37.4598C94.1698 37.5998 94.2898 37.7098 94.4298 37.7798C94.5698 37.8598 94.7198 37.9198 94.8998 37.9698C94.9848 37.9948 95.0698 38.0173 95.1548 38.0398C95.2398 38.0623 95.3248 38.0848 95.4098 38.1098C95.5134 38.1422 95.617 38.1704 95.7152 38.1971C95.7686 38.2117 95.8205 38.2257 95.8698 38.2398C96.0098 38.2898 96.1298 38.3498 96.2198 38.4298C96.2998 38.5198 96.3498 38.6298 96.3498 38.7498C96.3498 38.9498 96.2698 39.1098 96.1098 39.2298C95.9498 39.3498 95.7198 39.4098 95.4298 39.4098C95.0298 39.4098 94.6598 39.2798 94.3198 39.0198C94.2698 38.9898 94.2198 38.9698 94.1498 38.9698C94.0698 38.9698 94.0098 38.9898 93.9598 39.0398ZM97.4198 36.0098C97.3698 36.0598 97.3398 36.1198 97.3398 36.1998C97.3398 36.2798 97.3698 36.3398 97.4198 36.3998C97.4698 36.4498 97.5298 36.4798 97.5998 36.4798H98.0298V38.9998C98.0298 39.2898 98.0998 39.5098 98.2498 39.6698C98.3898 39.8298 98.6098 39.9098 98.8898 39.9098C98.9798 39.9098 99.0698 39.8998 99.1498 39.8898C99.2298 39.8798 99.2998 39.8598 99.3698 39.8398C99.4398 39.8098 99.4998 39.7698 99.5398 39.7298C99.5798 39.6798 99.5998 39.6298 99.5998 39.5698C99.5998 39.4998 99.5798 39.4398 99.5298 39.3898C99.4698 39.3398 99.4098 39.3198 99.3498 39.3198C99.3205 39.3198 99.2859 39.3252 99.242 39.332C99.2259 39.3345 99.2086 39.3372 99.1898 39.3398C99.1198 39.3598 99.0598 39.3698 99.0298 39.3698C98.8998 39.3698 98.7998 39.3298 98.7298 39.2398C98.6698 39.1498 98.6298 39.0298 98.6298 38.8798V36.4798H99.2098C99.2798 36.4798 99.3398 36.4498 99.3898 36.3998C99.4398 36.3498 99.4698 36.2898 99.4698 36.2098C99.4698 36.1298 99.4398 36.0698 99.3898 36.0198C99.3398 35.9598 99.2798 35.9398 99.2098 35.9398H98.6298V35.1298C98.6298 35.0498 98.5998 34.9798 98.5498 34.9298C98.4898 34.8698 98.4198 34.8398 98.3498 34.8398C98.2598 34.8398 98.1798 34.8698 98.1198 34.9198C98.0598 34.9798 98.0298 35.0498 98.0298 35.1298V35.9398H97.5998C97.5298 35.9398 97.4698 35.9598 97.4198 36.0098ZM100.29 36.8498C100.13 37.1598 100.05 37.4998 100.05 37.8698C100.05 38.4698 100.23 38.9598 100.6 39.3398C100.97 39.7198 101.44 39.9098 102.01 39.9098C102.14 39.9098 102.29 39.8898 102.45 39.8598C102.61 39.8298 102.77 39.7898 102.93 39.7398C103.09 39.6898 103.22 39.6198 103.33 39.5298C103.44 39.4498 103.49 39.3498 103.49 39.2598C103.49 39.1898 103.47 39.1298 103.42 39.0798C103.36 39.0298 103.31 39.0098 103.25 39.0098C103.21 39.0098 103.16 39.0198 103.12 39.0498C102.81 39.2898 102.46 39.4098 102.07 39.4098C101.67 39.4098 101.34 39.2798 101.09 39.0298C100.83 38.7698 100.69 38.4498 100.67 38.0698H103.48C103.57 38.0698 103.65 38.0398 103.71 37.9698C103.78 37.9098 103.81 37.8298 103.81 37.7398C103.81 37.6798 103.79 37.5498 103.75 37.3398C103.65 36.8798 103.44 36.5198 103.13 36.2498C102.81 35.9798 102.42 35.8398 101.95 35.8398C101.59 35.8398 101.26 35.9298 100.97 36.1098C100.68 36.2898 100.45 36.5398 100.29 36.8498ZM103.22 37.6298H100.67C100.68 37.4798 100.71 37.3298 100.77 37.1798C100.83 37.0298 100.91 36.8898 101.01 36.7598C101.11 36.6398 101.24 36.5298 101.4 36.4598C101.56 36.3798 101.75 36.3398 101.95 36.3398C102.16 36.3398 102.35 36.3798 102.51 36.4598C102.68 36.5398 102.81 36.6398 102.92 36.7698C103.01 36.8998 103.09 37.0398 103.14 37.1798C103.19 37.3298 103.22 37.4798 103.22 37.6298ZM104.79 36.1798V39.5698C104.79 39.6498 104.81 39.7198 104.87 39.7798C104.93 39.8298 105 39.8598 105.08 39.8598C105.16 39.8598 105.24 39.8298 105.3 39.7798C105.36 39.7198 105.39 39.6498 105.39 39.5698V36.9798C105.5 36.8198 105.65 36.6798 105.84 36.5598C106.03 36.4398 106.22 36.3798 106.4 36.3798C106.88 36.3798 107.12 36.6498 107.12 37.1798V39.5698C107.12 39.6498 107.15 39.7198 107.21 39.7798C107.26 39.8298 107.33 39.8598 107.41 39.8598C107.5 39.8598 107.57 39.8298 107.63 39.7798C107.69 39.7198 107.72 39.6498 107.72 39.5698V36.9698C107.83 36.8098 107.98 36.6698 108.17 36.5598C108.36 36.4398 108.56 36.3798 108.75 36.3798C108.99 36.3798 109.17 36.4498 109.28 36.5898C109.4 36.7298 109.46 36.9298 109.46 37.1798V39.5698C109.46 39.6498 109.49 39.7198 109.55 39.7798C109.61 39.8298 109.68 39.8598 109.76 39.8598C109.84 39.8598 109.91 39.8298 109.97 39.7798C110.03 39.7198 110.06 39.6498 110.06 39.5698V37.0098C110.06 36.6198 109.97 36.3298 109.79 36.1398C109.61 35.9398 109.34 35.8398 108.98 35.8398C108.72 35.8398 108.46 35.9198 108.22 36.0598C107.98 36.2098 107.8 36.3798 107.68 36.5698C107.62 36.3498 107.5 36.1798 107.33 36.0398C107.15 35.9098 106.92 35.8398 106.64 35.8398C106.38 35.8398 106.13 35.9098 105.89 36.0598C105.65 36.1998 105.48 36.3498 105.39 36.4998V36.1798C105.39 36.0998 105.36 36.0398 105.3 35.9798C105.24 35.9198 105.17 35.8898 105.1 35.8898C105.01 35.8898 104.94 35.9198 104.88 35.9798C104.82 36.0298 104.79 36.0998 104.79 36.1798Z" fill="#191911"/>
</g>
<defs>
<linearGradient id="paint0_linear_3001_1291" x1="2" y1="-8" x2="23" y2="30.5" gradientUnits="userSpaceOnUse">
<stop stop-color="#156BA3"/>
<stop offset="0.757007" stop-color="#5AC6C6"/>
</linearGradient>
<linearGradient id="paint1_linear_3001_1291" x1="72.305" y1="0" x2="72.305" y2="36" gradientUnits="userSpaceOnUse">
<stop offset="0.16593" stop-color="#5AC6C6"/>
<stop offset="1" stop-color="#156BA3"/>
</linearGradient>
<clipPath id="clip0_3001_1291">
<rect width="111" height="42" fill="white"/>
</clipPath>
</defs>
</svg>
