<svg width="95" height="95" viewBox="0 0 95 95" fill="none" xmlns="http://www.w3.org/2000/svg">
<path fill-rule="evenodd" clip-rule="evenodd" d="M47.3013 38.0659C62.738 38.0659 76.2275 29.6581 83.521 17.135C74.8821 6.66952 61.8175 0 47.2305 0C32.6787 0 19.6495 6.63404 11.0106 17.064C18.3041 29.6226 31.829 38.0659 47.3013 38.0659ZM38.8751 94.6153C16.7822 90.642 0 71.1301 0 47.6803C0 42.0042 0.955946 36.5408 2.76162 31.5033C25.7043 31.8226 44.2214 50.6958 44.2214 73.9327C44.2214 81.4537 42.2741 88.5134 38.8751 94.6153ZM55.3038 94.6859C77.5384 90.819 94.4976 71.2362 94.4976 47.68C94.4976 42.1457 93.5416 36.8243 91.8422 31.8931C68.7933 32.0704 50.1346 51.0148 50.1346 74.3226C50.1346 81.7017 52.0111 88.6195 55.3038 94.6859Z" fill="url(#paint0_linear_3004_1291)"/>
<path fill-rule="evenodd" clip-rule="evenodd" d="M47.2655 9.96899C52.2223 9.96899 56.2585 14.0133 56.2585 19.0154C56.2585 22.5276 54.3112 25.5785 51.408 27.104C56.3293 28.1328 60.578 30.9354 63.5874 34.767C58.5599 36.8956 53.072 38.0663 47.3009 38.0663C41.3882 38.0663 35.7588 36.8601 30.6604 34.6251C33.6699 30.758 38.0247 27.9909 42.9815 27.033C40.1845 25.4721 38.2726 22.4921 38.2726 19.0154C38.2726 14.0133 42.3088 9.96899 47.2655 9.96899ZM22.4463 53.0372C24.1812 53.0372 25.7745 53.5339 27.1199 54.3853C26.4472 52.2922 26.0931 50.0927 26.0931 47.7868C26.0931 45.0551 26.5888 42.4653 27.5093 40.0884C36.3607 46.8289 42.4858 57.046 43.902 68.6822C38.9807 67.9372 34.5904 65.4539 31.4393 61.8708V62.1191C31.4393 67.1213 27.4031 71.201 22.4463 71.201C17.4896 71.201 13.4534 67.1213 13.4534 62.1191C13.4534 57.117 17.4896 53.0372 22.4463 53.0372ZM71.9431 53.2856C76.8999 53.2856 80.9361 57.3298 80.9361 62.332C80.9361 67.3696 76.8999 71.4139 71.9431 71.4139C66.9863 71.4139 62.9501 67.3696 62.9501 62.332C62.9501 62.0482 62.9855 61.7644 62.9855 61.516C59.8699 65.2056 55.4796 67.7953 50.5228 68.6467C52.0453 57.1879 58.0642 47.2191 66.7385 40.5496C67.5528 42.8201 68.0131 45.2325 68.0131 47.7868C68.0131 50.2701 67.5528 52.6825 66.7739 54.9175C68.2255 53.8887 70.0312 53.2856 71.9431 53.2856Z" fill="white"/>
<defs>
<linearGradient id="paint0_linear_3004_1291" x1="7.08108" y1="-29.7997" x2="81.6616" y2="106.658" gradientUnits="userSpaceOnUse">
<stop stop-color="#156BA3"/>
<stop offset="0.757007" stop-color="#5AC6C6"/>
</linearGradient>
</defs>
</svg>
